<svg xmlns="http://www.w3.org/2000/svg" xmlns:svg="http://www.w3.org/2000/svg" id="svg4" width="16" height="16" version="1.1"><metadata id="metadata10"/><g id="text4521" aria-label="px" transform="matrix(1.1,0,0,1.1,-0.3,0.3499989)" style="font-style:normal;font-weight:400;font-size:26.59740067px;line-height:1.25;font-family:sans-serif;letter-spacing:0;word-spacing:0;fill:#666;fill-opacity:1;stroke:none;stroke-width:.90909094"><g style="font-style:normal;font-weight:400;font-size:10.909091px;line-height:1.25;font-family:sans-serif;letter-spacing:0;word-spacing:0;fill:#666;fill-opacity:1;stroke:none;stroke-width:.82644629" id="text821" aria-label="°"><path style="font-style:normal;font-variant:normal;font-weight:700;font-stretch:normal;font-size:10.909091px;font-family:'Open Sans';-inkscape-font-specification:'Open Sans, Bold';font-variant-ligatures:normal;font-variant-caps:normal;font-variant-numeric:normal;font-feature-settings:normal;text-align:start;writing-mode:lr-tb;text-anchor:start;fill:#666;fill-opacity:1;stroke-width:.82644629" id="path823" d="m 8.4545453,4.2130691 q 0,-0.4900568 0.2450284,-0.9161932 0.2450285,-0.4261364 0.6711648,-0.6764915 0.4261364,-0.2503551 0.9268465,-0.2503551 0.490057,0 0.916193,0.2450284 0.431463,0.2450284 0.676492,0.6764915 0.250355,0.4314631 0.250355,0.9215199 0,0.4953835 -0.250355,0.9268466 -0.245029,0.4261364 -0.671165,0.6658381 -0.426136,0.2397017 -0.92152,0.2397017 -0.772372,0 -1.3103692,-0.5273438 Q 8.4545453,4.9854413 8.4545453,4.2130691 Z m 1.0174006,0 q 0,0.3409091 0.234375,0.5806108 0.2397017,0.2397017 0.5912641,0.2397017 0.351563,0 0.591264,-0.2450284 0.239702,-0.2450284 0.239702,-0.5752841 0,-0.3355824 -0.245028,-0.5859375 -0.239702,-0.2503551 -0.585938,-0.2503551 -0.340909,0 -0.5859374,0.2450284 -0.2397017,0.2450284 -0.2397017,0.5912642 z"/></g></g></svg>