<svg xmlns="http://www.w3.org/2000/svg" xmlns:svg="http://www.w3.org/2000/svg" id="svg11" width="16" height="16" version="1.1" viewBox="0 0 16 16"><metadata id="metadata15"/><title id="title2">eye</title><desc id="desc4">Created with Sketch.</desc><g id="Icons" transform="matrix(0.62607447,0,0,0.62607447,4,1.6174787)" style="fill:none;fill-rule:evenodd;stroke:none;stroke-width:1.59725404"><g id="Artboard" transform="matrix(1.1408958,0,0,1.1408958,-92.640215,-417.66015)" style="fill:#666;fill-opacity:1;stroke-width:1.39999998"><path style="fill:#666;fill-opacity:1;stroke-width:1.39999998" id="eye" d="m 86.738028,368.01642 c -1.731129,0 -3.532774,0.73671 -5.108302,1.75 l 1.551783,1.51758 c 0.934254,-0.85162 2.178605,-1.3836 3.556519,-1.3836 2.888826,0 5.228531,2.29087 5.228531,5.11602 0,1.34754 -0.541167,2.56447 -1.411982,3.47812 l 1.635662,1.59961 c 2.527176,-1.67619 4.409301,-3.99863 4.409301,-5.07773 0,-1.78497 -5.242053,-7 -9.861512,-7 z m -6.822253,3.04336 c -1.7276,1.4805 -2.916235,3.11638 -2.916235,3.95664 0,1.75644 4.989312,7 9.738488,7 1.182542,0 2.385487,-0.32351 3.52856,-0.83672 l -1.487477,-1.45195 c -0.627335,0.26037 -1.316648,0.40469 -2.041083,0.40469 -2.888824,0 -5.231327,-2.29087 -5.231327,-5.11602 0,-0.70847 0.147571,-1.38258 0.41381,-1.99609 z m 6.822253,1.1293 c -0.341725,0 -0.671507,0.0576 -0.975806,0.16406 0.124176,0.33165 0.648351,1.76452 0.830414,2.26406 l 2.306705,2.25859 c 0.448234,-0.49798 0.729756,-1.14379 0.729756,-1.85937 0,-1.56127 -1.294612,-2.82734 -2.891069,-2.82734 z m -2.879885,2.72617 c -0.0013,0.0345 -0.01119,0.0664 -0.01119,0.10117 0,1.56127 1.294613,2.82734 2.891069,2.82734 0.03648,0 0.0701,-0.01 0.106249,-0.0109 z"/></g><path style="color:#000;font-style:normal;font-variant:normal;font-weight:400;font-stretch:normal;font-size:medium;line-height:normal;font-family:sans-serif;font-variant-ligatures:normal;font-variant-position:normal;font-variant-caps:normal;font-variant-numeric:normal;font-variant-alternates:normal;font-feature-settings:normal;text-indent:0;text-align:start;text-decoration:none;text-decoration-line:none;text-decoration-style:solid;text-decoration-color:#000;letter-spacing:normal;word-spacing:normal;text-transform:none;writing-mode:lr-tb;direction:ltr;text-orientation:mixed;dominant-baseline:auto;baseline-shift:baseline;text-anchor:start;white-space:normal;shape-padding:0;clip-rule:nonzero;display:inline;overflow:visible;visibility:visible;opacity:1;isolation:auto;mix-blend-mode:normal;color-interpolation:sRGB;color-interpolation-filters:linearRGB;solid-color:#000;solid-opacity:1;vector-effect:none;fill:#666;fill-opacity:1;fill-rule:nonzero;stroke:none;stroke-width:2.39588118;stroke-linecap:butt;stroke-linejoin:miter;stroke-miterlimit:4;stroke-dasharray:none;stroke-dashoffset:0;stroke-opacity:1;color-rendering:auto;image-rendering:auto;shape-rendering:auto;text-rendering:auto;enable-background:accumulate" id="path819" d="M -1.6230477,-0.98627038 -3.1945082,0.58519004 15.998334,19.778033 17.569795,18.206572 Z"/></g></svg>