<svg xmlns="http://www.w3.org/2000/svg" xmlns:svg="http://www.w3.org/2000/svg" id="svg11" width="16" height="16" version="1.1" viewBox="0 0 16 16"><metadata id="metadata10"/><g id="Artboard" transform="matrix(0.71428573,0,0,0.71428573,-53.845378,-259.85715)" style="fill:#666;fill-opacity:1;fill-rule:evenodd;stroke:none;stroke-width:1.39999998"><path id="eye" d="m 86.521218,382 c -4.749404,0 -9.737691,-5.24356 -9.737691,-7 0,-1.75644 5.118012,-7 9.737691,-7 4.619681,0 9.862309,5.21503 9.862309,7 0,1.78497 -5.112903,7 -9.862309,7 z m 0,-1.88462 c 2.888965,0 5.230933,-2.29023 5.230933,-5.11538 0,-2.82515 -2.341968,-5.11539 -5.230933,-5.11539 -2.888963,0 -5.230931,2.29024 -5.230931,5.11539 0,2.82515 2.341968,5.11538 5.230931,5.11538 z m 0,-2.28846 c -1.596532,0 -2.890778,-1.26565 -2.890778,-2.82692 0,-0.43679 0.101298,-0.85044 0.282174,-1.21971 0.443781,0.21281 2.608604,1.21971 2.608604,1.21971 0,0 -0.827885,-2.27239 -0.973946,-2.66247 0.304313,-0.10646 0.632205,-0.16445 0.973946,-0.16445 1.596534,0 2.890779,1.26565 2.890779,2.82692 0,1.56127 -1.294245,2.82692 -2.890779,2.82692 z" style="fill:#666;fill-opacity:1;stroke-width:1.39999998"/></g></svg>