<svg xmlns="http://www.w3.org/2000/svg" xmlns:svg="http://www.w3.org/2000/svg" id="svg14" width="16" height="16" version="1.1" viewBox="0 0 16 16"><metadata id="metadata18"/><g id="Icons" transform="translate(0,1)" style="fill:none;fill-rule:evenodd;stroke:none;stroke-width:1"><g id="Artboard" transform="translate(-186,-402)" style="stroke:#5e5e5e"><g id="shapes" transform="translate(186,402)"><path style="color:#000;font-style:normal;font-variant:normal;font-weight:400;font-stretch:normal;font-size:medium;line-height:normal;font-family:sans-serif;font-variant-ligatures:normal;font-variant-position:normal;font-variant-caps:normal;font-variant-numeric:normal;font-variant-alternates:normal;font-feature-settings:normal;text-indent:0;text-align:start;text-decoration:none;text-decoration-line:none;text-decoration-style:solid;text-decoration-color:#000;letter-spacing:normal;word-spacing:normal;text-transform:none;writing-mode:lr-tb;direction:ltr;text-orientation:mixed;dominant-baseline:auto;baseline-shift:baseline;text-anchor:start;white-space:normal;shape-padding:0;clip-rule:nonzero;display:inline;overflow:visible;visibility:visible;opacity:1;isolation:auto;mix-blend-mode:normal;color-interpolation:sRGB;color-interpolation-filters:linearRGB;solid-color:#000;solid-opacity:1;vector-effect:none;fill:#666;fill-opacity:1;fill-rule:nonzero;stroke:none;stroke-width:1;stroke-linecap:butt;stroke-linejoin:miter;stroke-miterlimit:4;stroke-dasharray:none;stroke-dashoffset:0;stroke-opacity:1;color-rendering:auto;image-rendering:auto;shape-rendering:auto;text-rendering:auto;enable-background:accumulate" id="path819" d="M 8,1 C 4.6922138,1 2,3.6922138 2,7 c 0,3.307786 2.6922138,6 6,6 3.307786,0 6,-2.692214 6,-6 C 14,3.6922138 11.307786,1 8,1 Z m 0,1 c 2.767346,0 5,2.2326539 5,5 0,2.7673461 -2.232654,5 -5,5 C 5.2326539,12 3,9.7673461 3,7 3,4.2326539 5.2326539,2 8,2 Z"/></g></g></g></svg>