<svg xmlns="http://www.w3.org/2000/svg" xmlns:svg="http://www.w3.org/2000/svg" id="svg38" width="16" height="16" version="1.1" viewBox="0 0 16 16"><metadata id="metadata42"/><title id="title2">group</title><desc id="desc4">Created with Sketch.</desc><defs id="defs10"><path id="path-1" d="M 0,0 H 4 V 4 H 0 Z M 1,1 V 3 H 3 V 1 Z"/><path id="path-2" d="m 0,16 h 4 v 4 H 0 Z m 1,1 v 2 h 2 v -2 z"/><path id="path-3" d="m 16,0 h 4 v 4 h -4 z m 1,1 v 2 h 2 V 1 Z"/><path id="path-4" d="m 16,16 h 4 v 4 h -4 z m 1,1 v 2 h 2 v -2 z"/></defs><path style="color:#000;font-style:normal;font-variant:normal;font-weight:400;font-stretch:normal;font-size:medium;line-height:normal;font-family:sans-serif;font-variant-ligatures:normal;font-variant-position:normal;font-variant-caps:normal;font-variant-numeric:normal;font-variant-alternates:normal;font-feature-settings:normal;text-indent:0;text-align:start;text-decoration:none;text-decoration-line:none;text-decoration-style:solid;text-decoration-color:#000;letter-spacing:normal;word-spacing:normal;text-transform:none;writing-mode:lr-tb;direction:ltr;text-orientation:mixed;dominant-baseline:auto;baseline-shift:baseline;text-anchor:start;white-space:normal;shape-padding:0;clip-rule:nonzero;display:inline;overflow:visible;visibility:visible;opacity:1;isolation:auto;mix-blend-mode:normal;color-interpolation:sRGB;color-interpolation-filters:linearRGB;solid-color:#000;solid-opacity:1;vector-effect:none;fill:#666;fill-opacity:1;fill-rule:nonzero;stroke:none;stroke-width:1;stroke-linecap:butt;stroke-linejoin:miter;stroke-miterlimit:4;stroke-dasharray:none;stroke-dashoffset:0;stroke-opacity:1;color-rendering:auto;image-rendering:auto;shape-rendering:auto;text-rendering:auto;enable-background:accumulate" id="rect909" d="M 2,2 V 3 H 14 V 2 Z M 2,3 V 13 H 3 V 3 Z m 11,0 v 10 h 1 V 3 Z M 2,13 v 1 h 12 v -1 z"/><path style="color:#000;font-style:normal;font-variant:normal;font-weight:400;font-stretch:normal;font-size:medium;line-height:normal;font-family:sans-serif;font-variant-ligatures:normal;font-variant-position:normal;font-variant-caps:normal;font-variant-numeric:normal;font-variant-alternates:normal;font-feature-settings:normal;text-indent:0;text-align:start;text-decoration:none;text-decoration-line:none;text-decoration-style:solid;text-decoration-color:#000;letter-spacing:normal;word-spacing:normal;text-transform:none;writing-mode:lr-tb;direction:ltr;text-orientation:mixed;dominant-baseline:auto;baseline-shift:baseline;text-anchor:start;white-space:normal;shape-padding:0;clip-rule:nonzero;display:inline;overflow:visible;visibility:visible;opacity:1;isolation:auto;mix-blend-mode:normal;color-interpolation:sRGB;color-interpolation-filters:linearRGB;solid-color:#000;solid-opacity:1;vector-effect:none;fill:#666;fill-opacity:.35294119;fill-rule:nonzero;stroke:none;stroke-width:1;stroke-linecap:butt;stroke-linejoin:miter;stroke-miterlimit:4;stroke-dasharray:none;stroke-dashoffset:0;stroke-opacity:1;color-rendering:auto;image-rendering:auto;shape-rendering:auto;text-rendering:auto;enable-background:accumulate" id="rect915" d="M 4 4 L 4 4.5 L 4 9 L 7 9 L 7 12 L 12 12 L 12 7 L 9 7 L 9 4 L 4 4 z M 5 5 L 8 5 L 8 7 L 7 7 L 7 7.5 L 7 8 L 5 8 L 5 5 z M 9 8 L 11 8 L 11 11 L 8 11 L 8 9 L 9 9 L 9 8 z"/><circle style="opacity:1;fill:#666;fill-opacity:1;fill-rule:nonzero;stroke:none;stroke-width:.99999994;stroke-miterlimit:4;stroke-dasharray:none;stroke-opacity:1" id="path823" cx="2.5" cy="2.5" r="1.5"/><circle id="circle825" cx="13.5" cy="2.5" r="1.5" style="opacity:1;fill:#666;fill-opacity:1;fill-rule:nonzero;stroke:none;stroke-width:.99999994;stroke-miterlimit:4;stroke-dasharray:none;stroke-opacity:1"/><circle id="circle827" cx="2.5" cy="13.5" r="1.5" style="opacity:1;fill:#666;fill-opacity:1;fill-rule:nonzero;stroke:none;stroke-width:.99999994;stroke-miterlimit:4;stroke-dasharray:none;stroke-opacity:1"/><circle style="opacity:1;fill:#666;fill-opacity:1;fill-rule:nonzero;stroke:none;stroke-width:.99999994;stroke-miterlimit:4;stroke-dasharray:none;stroke-opacity:1" id="circle829" cx="13.5" cy="13.5" r="1.5"/></svg>