<svg xmlns="http://www.w3.org/2000/svg" xmlns:svg="http://www.w3.org/2000/svg" xmlns:xlink="http://www.w3.org/1999/xlink" id="svg8" width="24" height="24" version="1.1" viewBox="0 0 6.35 6.35"><defs id="defs2"><filter style="color-interpolation-filters:sRGB" id="filter911" width="1.048" height="1.048" x="-.024" y="-.024"><feGaussianBlur id="feGaussianBlur913" stdDeviation=".048"/></filter><linearGradient id="linearGradient826" x1="3.175" x2="3.175" y1="290.915" y2="296.735" gradientTransform="matrix(1.0454545,0,0,1.0454546,-0.14431818,-13.355692)" gradientUnits="userSpaceOnUse" xlink:href="#linearGradient824"/><linearGradient id="linearGradient824"><stop style="stop-color:#cd9ef7;stop-opacity:1" id="stop820" offset="0"/><stop style="stop-color:#7239b3;stop-opacity:1" id="stop822" offset="1"/></linearGradient></defs><metadata id="metadata5"/><g id="layer1" transform="translate(0,-290.64998)"><rect style="opacity:1;fill:url(#linearGradient826);fill-opacity:1;fill-rule:nonzero;stroke:#783fb7;stroke-width:.26458332;stroke-miterlimit:4;stroke-dasharray:none;stroke-opacity:.5098038" id="rect818" width="6.085" height="6.085" x=".132" y="290.782" rx=".529" ry=".529"/><path id="path828" d="m 0.79375028,291.4924 v 0.13023 0.002 1.19062 0.13281 0.13178 l -2e-7,3.175 h 1.32291662 2.116666 l 1.3229187,7e-5 1e-6,-3.175 v -1.58751 z m 0.26458342,0.26459 4.2333347,7e-5 v 1.05833 l -3.1750015,-7e-5 H 1.0583337 Z m 0,1.32292 h 0.7937499 l -2e-7,2.91041 H 1.0583335 Z m 1.0583332,0 h 2.1166668 l -1e-6,2.91041 h -2.116666 z m 2.3812498,0 0.7937517,7e-5 v 2.91041 l -0.7937517,-7e-5 z" style="color:#000;font-style:normal;font-variant:normal;font-weight:400;font-stretch:normal;font-size:medium;line-height:normal;font-family:sans-serif;font-variant-ligatures:normal;font-variant-position:normal;font-variant-caps:normal;font-variant-numeric:normal;font-variant-alternates:normal;font-feature-settings:normal;text-indent:0;text-align:start;text-decoration:none;text-decoration-line:none;text-decoration-style:solid;text-decoration-color:#000;letter-spacing:normal;word-spacing:normal;text-transform:none;writing-mode:lr-tb;direction:ltr;text-orientation:mixed;dominant-baseline:auto;baseline-shift:baseline;text-anchor:start;white-space:normal;shape-padding:0;clip-rule:nonzero;display:inline;overflow:visible;visibility:visible;opacity:1;isolation:auto;mix-blend-mode:normal;color-interpolation:sRGB;color-interpolation-filters:linearRGB;solid-color:#000;solid-opacity:1;vector-effect:none;fill:#000;fill-opacity:.19607843;fill-rule:evenodd;stroke:none;stroke-width:.26458335;stroke-linecap:butt;stroke-linejoin:miter;stroke-miterlimit:4;stroke-dasharray:none;stroke-dashoffset:0;stroke-opacity:1;color-rendering:auto;image-rendering:auto;shape-rendering:auto;text-rendering:auto;enable-background:accumulate;filter:url(#filter911)"/><path style="color:#000;font-style:normal;font-variant:normal;font-weight:400;font-stretch:normal;font-size:medium;line-height:normal;font-family:sans-serif;font-variant-ligatures:normal;font-variant-position:normal;font-variant-caps:normal;font-variant-numeric:normal;font-variant-alternates:normal;font-feature-settings:normal;text-indent:0;text-align:start;text-decoration:none;text-decoration-line:none;text-decoration-style:solid;text-decoration-color:#000;letter-spacing:normal;word-spacing:normal;text-transform:none;writing-mode:lr-tb;direction:ltr;text-orientation:mixed;dominant-baseline:auto;baseline-shift:baseline;text-anchor:start;white-space:normal;shape-padding:0;clip-rule:nonzero;display:inline;overflow:visible;visibility:visible;opacity:1;isolation:auto;mix-blend-mode:normal;color-interpolation:sRGB;color-interpolation-filters:linearRGB;solid-color:#000;solid-opacity:1;vector-effect:none;fill:#fff;fill-opacity:1;fill-rule:evenodd;stroke:none;stroke-width:.26458335;stroke-linecap:butt;stroke-linejoin:miter;stroke-miterlimit:4;stroke-dasharray:none;stroke-dashoffset:0;stroke-opacity:1;color-rendering:auto;image-rendering:auto;shape-rendering:auto;text-rendering:auto;enable-background:accumulate" id="Rectangle-8-3" d="m 0.79375032,291.44372 v 0.13023 0.002 1.19062 0.13281 0.13178 l -2e-7,3.175 h 1.32291658 2.116666 l 1.3229187,7e-5 1e-6,-3.175 v -1.58751 z m 0.26458338,0.26459 4.2333347,7e-5 v 1.05833 l -3.1750015,-7e-5 H 1.0583337 Z m 0,1.32292 h 0.7937499 l -2e-7,2.91041 H 1.0583335 Z m 1.0583332,0 h 2.1166668 l -1e-6,2.91041 h -2.116666 z m 2.3812498,0 0.7937517,7e-5 v 2.91041 l -0.7937517,-7e-5 z"/></g></svg>