<svg xmlns="http://www.w3.org/2000/svg" xmlns:svg="http://www.w3.org/2000/svg" xmlns:xlink="http://www.w3.org/1999/xlink" id="svg8" width="24" height="24" version="1.1" viewBox="0 0 6.35 6.35"><defs id="defs2"><linearGradient id="linearGradient826" x1="3.175" x2="3.175" y1="290.915" y2="296.735" gradientTransform="matrix(1.0454545,0,0,1.0454546,-0.14431818,-13.355692)" gradientUnits="userSpaceOnUse" xlink:href="#linearGradient824"/><linearGradient id="linearGradient824"><stop style="stop-color:#95a3ab;stop-opacity:1" id="stop820" offset="0"/><stop style="stop-color:#485a6c;stop-opacity:1" id="stop822" offset="1"/></linearGradient><filter style="color-interpolation-filters:sRGB" id="filter883" width="1.048" height="1.048" x="-.024" y="-.024"><feGaussianBlur id="feGaussianBlur885" stdDeviation=".16"/></filter></defs><metadata id="metadata5"/><g id="layer1" transform="translate(0,-290.64998)"><rect style="opacity:1;fill:url(#linearGradient826);fill-opacity:1;fill-rule:nonzero;stroke:#4a5c6e;stroke-width:.26458332;stroke-miterlimit:4;stroke-dasharray:none;stroke-opacity:.50980395" id="rect818" width="6.085" height="6.085" x=".132" y="290.782" rx=".529" ry=".529"/><path id="path881" d="M 11,4 V 6.0898438 C 10.089695,6.2429539 9.2494098,6.5992991 8.5273438,7.1132812 L 7.0507812,5.6367188 5.6367188,7.0507812 7.1132812,8.5273438 C 6.5993001,9.2494094 6.2429515,10.089698 6.0898438,11 H 4 v 2 h 2.0898438 c 0.1531077,0.910302 0.5094563,1.750591 1.0234374,2.472656 l -1.4765624,1.476563 1.4140624,1.414062 1.4765626,-1.476562 C 9.2494098,17.400701 10.089695,17.757046 11,17.910156 V 20 h 2 v -2.089844 c 0.910305,-0.15311 1.75059,-0.509455 2.472656,-1.023437 l 1.476563,1.476562 1.414062,-1.414062 -1.476562,-1.476563 C 17.4007,14.750591 17.757048,13.910302 17.910156,13 H 20 V 11 H 17.910156 C 17.757048,10.089698 17.4007,9.2494094 16.886719,8.5273438 L 18.363281,7.0507812 16.949219,5.6367188 15.472656,7.1132812 C 14.75059,6.5992991 13.910305,6.2429539 13,6.0898438 V 4 Z m 1,4 c 2.209143,0 4.000006,1.7908662 4,4 6e-6,2.209134 -1.790857,4 -4,4 -2.2091433,0 -4.0000064,-1.790866 -4,-4 -6.4e-6,-2.2091338 1.7908567,-4 4,-4 z" transform="matrix(0.26458334,0,0,0.26458334,0,290.70713)" style="opacity:1;fill:#000;fill-opacity:.19607843;fill-rule:nonzero;stroke:none;stroke-width:1;stroke-miterlimit:4;stroke-dasharray:none;stroke-opacity:.5098038;filter:url(#filter883)"/><path style="opacity:1;fill:#fff;fill-opacity:1;fill-rule:nonzero;stroke:none;stroke-width:1;stroke-miterlimit:4;stroke-dasharray:none;stroke-opacity:.5098038" id="path844" d="M 11 4 L 11 6.0898438 C 10.089695 6.2429539 9.2494098 6.5992991 8.5273438 7.1132812 L 7.0507812 5.6367188 L 5.6367188 7.0507812 L 7.1132812 8.5273438 C 6.5993001 9.2494094 6.2429515 10.089698 6.0898438 11 L 4 11 L 4 13 L 6.0898438 13 C 6.2429515 13.910302 6.5993001 14.750591 7.1132812 15.472656 L 5.6367188 16.949219 L 7.0507812 18.363281 L 8.5273438 16.886719 C 9.2494098 17.400701 10.089695 17.757046 11 17.910156 L 11 20 L 13 20 L 13 17.910156 C 13.910305 17.757046 14.75059 17.400701 15.472656 16.886719 L 16.949219 18.363281 L 18.363281 16.949219 L 16.886719 15.472656 C 17.4007 14.750591 17.757048 13.910302 17.910156 13 L 20 13 L 20 11 L 17.910156 11 C 17.757048 10.089698 17.4007 9.2494094 16.886719 8.5273438 L 18.363281 7.0507812 L 16.949219 5.6367188 L 15.472656 7.1132812 C 14.75059 6.5992991 13.910305 6.2429539 13 6.0898438 L 13 4 L 11 4 z M 12 8 C 14.209143 8 16.000006 9.7908662 16 12 C 16.000006 14.209134 14.209143 16 12 16 C 9.7908567 16 7.9999936 14.209134 8 12 C 7.9999936 9.7908662 9.7908567 8 12 8 z" transform="matrix(0.26458334,0,0,0.26458334,0,290.64998)"/></g></svg>