<svg xmlns="http://www.w3.org/2000/svg" xmlns:svg="http://www.w3.org/2000/svg" xmlns:xlink="http://www.w3.org/1999/xlink" id="svg4434" width="128" height="128" version="1.1"><defs id="defs4436"><linearGradient id="linearGradient4304"><stop style="stop-color:#fff;stop-opacity:1" id="stop4306" offset="0"/><stop style="stop-color:#7e7e7e;stop-opacity:1" id="stop4308" offset="1"/></linearGradient><linearGradient id="linearGradient4487"><stop id="stop4489" offset="0" style="stop-color:#fff;stop-opacity:1"/><stop id="stop4491" offset="1" style="stop-color:#1d5f8c;stop-opacity:.81960785"/></linearGradient><linearGradient id="linearGradient4136" x1="24" x2="24" y1="5.591" y2="42.262" gradientTransform="matrix(2.7297298,0,0,2.7297298,-1.5135184,-62.511679)" gradientUnits="userSpaceOnUse" xlink:href="#linearGradient3924"/><linearGradient id="linearGradient3924"><stop style="stop-color:#fff;stop-opacity:1" id="stop3926" offset="0"/><stop style="stop-color:#fff;stop-opacity:.23529412" id="stop3928" offset=".038"/><stop style="stop-color:#fff;stop-opacity:.15686275" id="stop3930" offset=".967"/><stop style="stop-color:#fff;stop-opacity:.39215687" id="stop3932" offset="1"/></linearGradient><linearGradient id="linearGradient4632-92-3-0-8-1-9"><stop style="stop-color:#fafafa;stop-opacity:1" id="stop4634-68-8-0-2-9-4" offset="0"/><stop style="stop-color:#e1e1e1;stop-opacity:1" id="stop4636-8-21-7-1-4-8" offset="1"/></linearGradient><radialGradient id="radialGradient4093" cx="4.993" cy="43.5" r="2.5" fx="4.993" fy="43.5" gradientTransform="matrix(2.003784,0,0,1.4,27.98813,-17.4)" gradientUnits="userSpaceOnUse" xlink:href="#linearGradient3688-166-749-5"/><linearGradient id="linearGradient3688-166-749-5"><stop style="stop-color:#181818;stop-opacity:1" id="stop2883-0" offset="0"/><stop style="stop-color:#181818;stop-opacity:0" id="stop2885-5" offset="1"/></linearGradient><radialGradient id="radialGradient4095" cx="4.993" cy="43.5" r="2.5" fx="4.993" fy="43.5" gradientTransform="matrix(2.003784,0,0,1.4,-20.01187,-104.4)" gradientUnits="userSpaceOnUse" xlink:href="#linearGradient3688-464-309-8"/><linearGradient id="linearGradient3688-464-309-8"><stop style="stop-color:#181818;stop-opacity:1" id="stop2889-9" offset="0"/><stop style="stop-color:#181818;stop-opacity:0" id="stop2891-4" offset="1"/></linearGradient><linearGradient id="linearGradient4097" x1="25.058" x2="25.058" y1="47.028" y2="39.999" gradientUnits="userSpaceOnUse" xlink:href="#linearGradient3702-501-757-0"/><linearGradient id="linearGradient3702-501-757-0"><stop style="stop-color:#181818;stop-opacity:0" id="stop2895-0" offset="0"/><stop style="stop-color:#181818;stop-opacity:1" id="stop2897-2" offset=".5"/><stop style="stop-color:#181818;stop-opacity:0" id="stop2899-6" offset="1"/></linearGradient><linearGradient id="linearGradient3811"><stop style="stop-color:#000;stop-opacity:1" id="stop3813" offset="0"/><stop style="stop-color:#000;stop-opacity:0" id="stop3815" offset="1"/></linearGradient><radialGradient id="radialGradient4432" cx="-4.029" cy="93.468" r="35.338" fx="-4.029" fy="93.468" gradientTransform="matrix(1.5563924,0,0,0.16978827,70.270355,38.132101)" gradientUnits="userSpaceOnUse" xlink:href="#linearGradient3811"/><radialGradient id="radialGradient3044" cx="32" cy="4.342" r="27.5" fx="32" fy="4.342" gradientTransform="matrix(1.8994991e-8,4.3639682,-4.363968,1.8994991e-8,82.947989,-187.94014)" gradientUnits="userSpaceOnUse" xlink:href="#linearGradient4632-92-3-0-8-1-9"/><linearGradient id="linearGradient4327"><stop style="stop-color:#f0f0f0;stop-opacity:1" id="stop4329" offset="0"/><stop id="stop4331" offset="1" style="stop-color:#b4b4b4;stop-opacity:1"/></linearGradient><radialGradient id="radialGradient3163" cx="99.157" cy="186.171" r="62.769" fx="99.157" fy="186.171" gradientTransform="matrix(0.6869404,0,0,0.21461693,-4.02174,68.573331)" gradientUnits="userSpaceOnUse" xlink:href="#linearGradient3820-7-2-8-6"/><linearGradient id="linearGradient3820-7-2-8-6"><stop style="stop-color:#3d3d3d;stop-opacity:1" id="stop3822-2-6-5-0" offset="0"/><stop style="stop-color:#686868;stop-opacity:.49803922" id="stop3864-8-7-4-1" offset=".5"/><stop style="stop-color:#686868;stop-opacity:0" id="stop3824-1-2-6-7" offset="1"/></linearGradient><radialGradient id="radialGradient4332" cx="23.896" cy="3.99" r="20.397" fx="23.896" fy="3.99" gradientTransform="matrix(0,7.3269875,-9.6714935,0,103.09023,-162.1666)" gradientUnits="userSpaceOnUse" xlink:href="#radialGradient3093-0-3-6"/><radialGradient id="radialGradient3093-0-3-6" cx="23.896" cy="3.99" r="20.397" gradientTransform="matrix(0,1.2316483,-1.625754,0,18.486966,-28.721977)" gradientUnits="userSpaceOnUse"><stop id="stop3244-9-33-7-0" offset="0" style="stop-color:#fff;stop-opacity:1"/><stop id="stop3246-3-5-0-8" offset=".262" style="stop-color:#ddd;stop-opacity:1"/><stop id="stop3248-1-7-8-8" offset=".661" style="stop-color:#abacae;stop-opacity:1"/><stop id="stop3250-9-3-0-5" offset="1" style="stop-color:#89898b;stop-opacity:1"/></radialGradient><linearGradient id="linearGradient3118" x1="71.204" x2="71.204" y1="15.369" y2="40.496" gradientTransform="matrix(4.16388,0,0,4.16388,-236.03265,-50.036246)" gradientUnits="userSpaceOnUse" xlink:href="#linearGradient4806"/><linearGradient id="linearGradient4806"><stop id="stop4808" offset="0" style="stop-color:#fff;stop-opacity:1"/><stop id="stop4810" offset=".424" style="stop-color:#fff;stop-opacity:.23529412"/><stop id="stop4812" offset=".821" style="stop-color:#fff;stop-opacity:.15686275"/><stop id="stop4814" offset="1" style="stop-color:#fff;stop-opacity:.39215687"/></linearGradient><radialGradient id="radialGradient3163-3" cx="99.157" cy="186.171" r="62.769" fx="99.157" fy="186.171" gradientTransform="matrix(0.6869404,0,0,0.21461693,-4.02174,68.573331)" gradientUnits="userSpaceOnUse" xlink:href="#linearGradient3820-7-2-8-6"/><radialGradient id="radialGradient4332-3" cx="25.098" cy="3.906" r="20.397" fx="26.57" fy="3.851" gradientTransform="matrix(0,7.3269875,-9.6714935,0,103.09023,-162.1666)" gradientUnits="userSpaceOnUse" xlink:href="#radialGradient3093-0-3-6-5"/><radialGradient id="radialGradient3093-0-3-6-5" cx="23.896" cy="3.99" r="20.397" gradientTransform="matrix(0,1.2316483,-1.625754,0,18.486966,-28.721977)" gradientUnits="userSpaceOnUse"><stop id="stop3244-9-33-7-0-6" offset="0" style="stop-color:#fcfcfc;stop-opacity:1"/><stop id="stop3248-1-7-8-8-9" offset=".625" style="stop-color:#c8c8c8;stop-opacity:1"/><stop id="stop3250-9-3-0-5-1" offset="1" style="stop-color:#89898b;stop-opacity:1"/></radialGradient><linearGradient id="_Linear1" x1="0" x2="1" y1="0" y2="0" gradientTransform="matrix(0.992809,-3.16546,3.16546,0.992809,32.5806,61.4726)" gradientUnits="userSpaceOnUse"><stop style="stop-color:#ff8000;stop-opacity:1" id="stop45" offset="0"/><stop style="stop-color:#fec919;stop-opacity:1" id="stop47" offset="1"/></linearGradient><clipPath id="_clip2"><path id="path9" d="m 31.195,60.829 c 0,-0.83 1.377,-1.503 3.109,-1.503 0.09,0 0.179,10e-4 0.268,0.005 0.071,0.003 2.369,0 2.369,0 L 32.805,70.5 28.177,68.688 c 0,0 3.018,-7.029 3.018,-7.859 z"/></clipPath><linearGradient id="_Linear3" x1="0" x2="1" y1="0" y2="0" gradientTransform="matrix(0.475104,-8.73082,8.73082,0.475104,32.6523,68.8274)" gradientUnits="userSpaceOnUse"><stop style="stop-color:#000;stop-opacity:1" id="stop50" offset="0"/><stop style="stop-color:#000;stop-opacity:0" id="stop52" offset="1"/></linearGradient><linearGradient id="_Linear4" x1="0" x2="1" y1="0" y2="0" gradientTransform="matrix(0,-26.3538,26.3538,0,65.7189,20.9036)" gradientUnits="userSpaceOnUse"><stop style="stop-color:#ff8000;stop-opacity:1" id="stop55" offset="0"/><stop style="stop-color:#fec919;stop-opacity:1" id="stop57" offset="1"/></linearGradient><linearGradient id="_Linear5" x1="0" x2="1" y1="0" y2="0" gradientTransform="matrix(114.289,172.268,-172.268,114.289,26.3072,-22.9385)" gradientUnits="userSpaceOnUse"><stop style="stop-color:#aa46f7;stop-opacity:1" id="stop60" offset="0"/><stop style="stop-color:#8468f6;stop-opacity:1" id="stop62" offset="1"/></linearGradient><clipPath id="_clip6"><path id="path20" d="M 56.986,3.691 C 57.138,3.276 57.411,3 57.722,3 c 0.231,0 0.442,0.154 0.597,0.404 l 7,10.852 c 0.174,0.275 0.646,0.307 0.859,-0.002 L 73.327,3.404 C 73.482,3.154 73.693,3 73.925,3 c 0.311,0 0.583,0.276 0.735,0.691 l -0.002,-0.01 46.951,116.737 c 0.255,0.571 0.153,0.75 -0.511,0.312 L 52.046,78.995 9.7,121.238 c 0,0 47.247,-117.441 47.286,-117.547 z"/></clipPath><linearGradient id="_Linear7" x1="0" x2="1" y1="0" y2="0" gradientTransform="matrix(0,21.4461,-21.4461,0,65.0178,6.36662)" gradientUnits="userSpaceOnUse"><stop style="stop-color:#000;stop-opacity:.25" id="stop65" offset="0"/><stop style="stop-color:#000;stop-opacity:0" id="stop67" offset="1"/></linearGradient><linearGradient id="_Linear8" x1="0" x2="1" y1="0" y2="0" gradientTransform="matrix(11.7918,16.3344,-16.3344,11.7918,80.0279,75.0664)" gradientUnits="userSpaceOnUse"><stop style="stop-color:#000;stop-opacity:.25" id="stop70" offset="0"/><stop style="stop-color:#000;stop-opacity:0" id="stop72" offset="1"/></linearGradient><linearGradient id="_Linear9" x1="0" x2="1" y1="0" y2="0" gradientTransform="matrix(0,-5.79164,5.79164,0,65.7189,66.5203)" gradientUnits="userSpaceOnUse"><stop style="stop-color:#000;stop-opacity:.25" id="stop75" offset="0"/><stop style="stop-color:#000;stop-opacity:0" id="stop77" offset="1"/></linearGradient><linearGradient id="_Linear10" x1="0" x2="1" y1="0" y2="0" gradientTransform="matrix(72.4847,-67.4553,67.4553,72.4847,6.26221,121.995)" gradientUnits="userSpaceOnUse"><stop style="stop-color:#b53cf8;stop-opacity:1" id="stop80" offset="0"/><stop style="stop-color:#7c6ff5;stop-opacity:1" id="stop82" offset="1"/></linearGradient><linearGradient id="linearGradient4476" x1="0" x2="1" y1="0" y2="0" gradientTransform="matrix(0.992809,-3.16546,3.16546,0.992809,32.5806,61.4726)" gradientUnits="userSpaceOnUse" xlink:href="#_Linear5"/><linearGradient id="linearGradient4478" x1="0" x2="1" y1="0" y2="0" gradientTransform="matrix(0.475104,-8.73082,8.73082,0.475104,32.6523,68.8274)" gradientUnits="userSpaceOnUse" xlink:href="#_Linear3"/><linearGradient id="linearGradient4480" x1=".679" x2=".211" y1="0" y2="0" gradientTransform="matrix(0,-26.3538,26.3538,0,65.7189,20.9036)" gradientUnits="userSpaceOnUse" xlink:href="#_Linear5"/><linearGradient id="linearGradient4482" x1=".153" x2=".815" y1="-.013" y2=".002" gradientTransform="matrix(114.289,172.268,-172.268,114.289,26.3072,-22.9385)" gradientUnits="userSpaceOnUse" xlink:href="#_Linear5"/><linearGradient id="linearGradient4484" x1="0" x2="1" y1="0" y2="0" gradientTransform="matrix(0,21.4461,-21.4461,0,65.0178,6.3666201)" gradientUnits="userSpaceOnUse" xlink:href="#_Linear7"/><linearGradient id="linearGradient4486" x1="0" x2="1" y1="0" y2="0" gradientTransform="matrix(11.7918,16.3344,-16.3344,11.7918,80.0279,75.0664)" gradientUnits="userSpaceOnUse" xlink:href="#_Linear8"/><linearGradient id="linearGradient4488" x1="0" x2="1" y1="0" y2="0" gradientTransform="matrix(0,-5.79164,5.79164,0,65.7189,66.5203)" gradientUnits="userSpaceOnUse" xlink:href="#_Linear9"/><linearGradient id="linearGradient4490" x1="0" x2="1.13" y1="0" y2=".23" gradientTransform="matrix(72.4847,-67.4553,67.4553,72.4847,6.26221,121.995)" gradientUnits="userSpaceOnUse" xlink:href="#_Linear10"/></defs><metadata id="metadata4439"/><g id="layer3" style="display:inline"><g style="display:inline" id="g4304" transform="translate(0,1e-6)"><path style="fill:url(#radialGradient3163-3);fill-opacity:1;stroke:none" id="path3818-0-5-0" d="m 107.21186,108.52868 a 43.118644,13.471312 0 1 1 -86.237286,0 43.118644,13.471312 0 1 1 86.237286,0 z"/><path id="path2555-7" d="m 64.499999,13.998148 c -28.691826,0 -52.000036,23.308205 -52.000036,52.000033 0,28.691827 23.30821,52.000049 52.000036,52.000029 28.691822,0 52.000051,-23.308202 52.000041,-52.000029 0,-28.691828 -23.308219,-52.000033 -52.000041,-52.000033 z" style="color:#000;display:inline;overflow:visible;visibility:visible;fill:url(#radialGradient4332-3);fill-opacity:1;fill-rule:nonzero;stroke:none;stroke-width:.99999994;marker:none;enable-background:accumulate"/><path style="color:#000;display:inline;overflow:visible;visibility:visible;opacity:.15;fill:none;fill-opacity:0;fill-rule:nonzero;stroke:#000;stroke-width:1;stroke-linecap:round;stroke-linejoin:round;stroke-miterlimit:4;stroke-dasharray:none;stroke-dashoffset:0;stroke-opacity:1;marker:none;enable-background:accumulate" id="path2555-7-1" d="m 64.5,13.998179 c -28.691806,0 -52.000001,23.308189 -52.000001,51.999997 0,28.691808 23.308195,52.000014 52.000001,52.000004 28.691802,0 52.00002,-23.308196 52,-52.000004 0,-28.691808 -23.308198,-51.999997 -52,-51.999997 z"/><path style="color:#000;display:inline;overflow:visible;visibility:visible;opacity:.25;fill:none;stroke:url(#linearGradient3118);stroke-width:1;stroke-linecap:round;stroke-linejoin:round;stroke-miterlimit:4;stroke-dasharray:none;stroke-dashoffset:0;stroke-opacity:1;marker:none;enable-background:accumulate" id="path3019" d="m 115.5,65.998181 c 0,28.166516 -22.833502,50.999989 -51.000026,50.999989 -28.166487,0 -50.999973,-22.833473 -50.999973,-50.999989 0,-28.166517 22.833486,-50.999991 50.999973,-50.999991 28.166524,0 51.000026,22.833474 51.000026,50.999991 z"/></g><g style="clip-rule:evenodd;fill:#000;fill-opacity:.19607843;fill-rule:evenodd;stroke-linejoin:round;stroke-miterlimit:1.41420996" id="details" transform="matrix(0.57453863,0,0,0.57453863,28.020641,27.918562)"><g id="sunshine" style="fill:#000;fill-opacity:.19607843"><clipPath id="clipPath4253"><path id="path4255" d="m 31.195,60.829 c 0,-0.83 1.377,-1.503 3.109,-1.503 0.09,0 0.179,10e-4 0.268,0.005 0.071,0.003 2.369,0 2.369,0 L 32.805,70.5 28.177,68.688 c 0,0 3.018,-7.029 3.018,-7.859 z"/></clipPath><path style="fill:#000;fill-opacity:.19607843" id="path17" d="m 74.66,3.691 -0.002,-0.01 46.951,116.737 c 0.255,0.571 0.153,0.75 -0.511,0.312 L 52.046,78.995 32.776346,66.672057 C 51.36989,39.443269 61.102742,25.047894 74.66,3.691 Z"/><clipPath id="clipPath4261"><path id="path4263" d="M 56.986,3.691 C 57.138,3.276 57.411,3 57.722,3 c 0.231,0 0.442,0.154 0.597,0.404 l 7,10.852 c 0.174,0.275 0.646,0.307 0.859,-0.002 L 73.327,3.404 C 73.482,3.154 73.693,3 73.925,3 c 0.311,0 0.583,0.276 0.735,0.691 l -0.002,-0.01 46.951,116.737 c 0.255,0.571 0.153,0.75 -0.511,0.312 L 52.046,78.995 9.7,121.238 c 0,0 47.247,-117.441 47.286,-117.547 z"/></clipPath><path style="fill:#000;fill-opacity:.19607843" id="path32" d="m 34.304,62.332 h 73.561 c 0.485,-0.002 0.457,0.159 -0.005,0.457 L 6.8640001,124.802 c -0.613,0.375 -0.753,0.214 -0.441,-0.459 L 31.195,60.729 c 0,0 -0.231,1.456 3.109,1.603 z"/></g></g><g id="g4434" transform="matrix(0.57453863,0,0,0.57453863,28.020641,24.243553)" style="clip-rule:evenodd;fill-rule:evenodd;stroke-linejoin:round;stroke-miterlimit:1.41420996"><g id="g4436"><path id="path4438" d="m 31.195,60.829 c 0,-0.83 1.377,-1.503 3.109,-1.503 0.09,0 0.179,10e-4 0.268,0.005 0.071,0.003 2.369,0 2.369,0 L 32.805,70.5 28.177,68.688 c 0,0 3.018,-7.029 3.018,-7.859 z" style="fill:url(#linearGradient4476);fill-opacity:1"/><clipPath id="clipPath4440"><path id="path4442" d="m 31.195,60.829 c 0,-0.83 1.377,-1.503 3.109,-1.503 0.09,0 0.179,10e-4 0.268,0.005 0.071,0.003 2.369,0 2.369,0 L 32.805,70.5 28.177,68.688 c 0,0 3.018,-7.029 3.018,-7.859 z"/></clipPath><g id="g4444" clip-path="url(#_clip2)"><rect id="rect4446" width="15.868" height="17.349" x="24.718" y="55.601" style="fill:url(#linearGradient4478)"/></g><path id="path4448" d="M 73.994,3 H 57.653 l 8.066,12.341 z" style="fill:url(#linearGradient4480);fill-opacity:1"/><path id="path4450" d="M 56.986,3.691 C 57.138,3.276 57.411,3 57.722,3 c 0.231,0 0.442,0.154 0.597,0.404 l 7,10.852 c 0.174,0.275 0.646,0.307 0.859,-0.002 L 73.327,3.404 C 73.482,3.154 73.693,3 73.925,3 c 0.311,0 0.583,0.276 0.735,0.691 l -0.002,-0.01 46.951,116.737 c 0.255,0.571 0.153,0.75 -0.511,0.312 L 52.046,78.995 9.7,121.238 c 0,0 47.247,-117.441 47.286,-117.547 z" style="fill:url(#linearGradient4482)"/><clipPath id="clipPath4452"><path id="path4454" d="M 56.986,3.691 C 57.138,3.276 57.411,3 57.722,3 c 0.231,0 0.442,0.154 0.597,0.404 l 7,10.852 c 0.174,0.275 0.646,0.307 0.859,-0.002 L 73.327,3.404 C 73.482,3.154 73.693,3 73.925,3 c 0.311,0 0.583,0.276 0.735,0.691 l -0.002,-0.01 46.951,116.737 c 0.255,0.571 0.153,0.75 -0.511,0.312 L 52.046,78.995 9.7,121.238 c 0,0 47.247,-117.441 47.286,-117.547 z"/></clipPath><g id="g4456" clip-path="url(#_clip6)"><rect id="rect4458" width="54.879" height="29.098" x="37.578" y="3" style="fill:url(#linearGradient4484)"/><path id="path4460" d="M 79.885,102.259 110.315,80.519 102.887,64 36.941,64.913 Z" style="fill:url(#linearGradient4486)"/><path id="path4462" d="M 103.728,54.345 32.559,54.414 26.307,70.5 97.788,67.094 Z" style="fill:url(#linearGradient4488)"/><path id="path4464" d="M 36.044,81.148 63.323,9.225 67.968,9.215 103.584,99.603 56.559,70.039 Z" style="fill:#fff;fill-opacity:.2"/></g><path id="path4466" d="m 34.304,62.332 h 73.561 c 0.485,-0.002 0.457,0.159 -0.005,0.457 L 6.864,124.802 c -0.613,0.375 -0.753,0.214 -0.441,-0.459 L 31.195,60.729 c 0,0 -0.231,1.456 3.109,1.603 z" style="fill:url(#linearGradient4490)"/></g><g id="g4468"><g id="g4470" style="opacity:.35"><path id="path4472" d="m 29.355,65.54 c 0.089,1.261 1.32,1.653 2.59,1.669 L 93.417,66.655 9.7,115.966 Z" style="fill:#fff"/><path id="path4474" d="M 70.611,3.0000001 65.719,10.623 61.054,3.0000001 Z" style="fill:#fff"/></g></g></g></g></svg>