<svg xmlns="http://www.w3.org/2000/svg" xmlns:osb="http://www.openswatchbook.org/uri/2009/osb" xmlns:svg="http://www.w3.org/2000/svg" xmlns:xlink="http://www.w3.org/1999/xlink" id="svg2453" width="16" height="16" version="1.0"><metadata id="metadata35"/><defs id="defs2455"><linearGradient id="linearGradient6490" osb:paint="gradient"><stop style="stop-color:#000;stop-opacity:1" id="stop6492" offset="0"/><stop style="stop-color:#000;stop-opacity:0" id="stop6494" offset="1"/></linearGradient><linearGradient id="linearGradient5641" osb:paint="solid"><stop style="stop-color:#000;stop-opacity:1" id="stop5643" offset="0"/></linearGradient><linearGradient id="linearGradient3707-319-631-407-324-616-674-812-821-107-178-392-400-6-3-549-901-1-9-100-4-2"><stop style="stop-color:#000;stop-opacity:1" id="stop17839-7-3" offset="0"/><stop style="stop-color:#161616;stop-opacity:1" id="stop17841-4-8" offset="1"/></linearGradient><radialGradient id="c" cx="4.993" cy="43.5" r="2.5" gradientTransform="matrix(2.0038,0,0,1.4,27.988,-17.4)" gradientUnits="userSpaceOnUse"><stop id="stop4912" offset="0" stop-color="#181818"/><stop id="stop4914" offset="1" stop-color="#181818" stop-opacity="0"/></radialGradient><radialGradient id="b" cx="4.993" cy="43.5" r="2.5" gradientTransform="matrix(2.0038,0,0,1.4,-20.012,-104.4)" gradientUnits="userSpaceOnUse"><stop id="stop4917" offset="0" stop-color="#181818"/><stop id="stop4919" offset="1" stop-color="#181818" stop-opacity="0"/></radialGradient><linearGradient id="f" x1="25.058" x2="25.058" y1="47.028" y2="39.999" gradientUnits="userSpaceOnUse"><stop id="stop4922" offset="0" stop-color="#181818" stop-opacity="0"/><stop id="stop4924" offset=".5" stop-color="#181818"/><stop id="stop4926" offset="1" stop-color="#181818" stop-opacity="0"/></linearGradient><linearGradient id="linearGradient3924-4"><stop style="stop-color:#fff;stop-opacity:1" id="stop3926-8" offset="0"/><stop style="stop-color:#fff;stop-opacity:.23529412" id="stop3928-6" offset=".063"/><stop style="stop-color:#fff;stop-opacity:.15686275" id="stop3930-4" offset=".951"/><stop style="stop-color:#fff;stop-opacity:.39215687" id="stop3932-4" offset="1"/></linearGradient><linearGradient id="linearGradient5344-867-2"><stop id="stop5559-5" offset="0" style="stop-color:#f9c590;stop-opacity:1"/><stop id="stop5561-3" offset=".397" style="stop-color:#f19860;stop-opacity:1"/><stop id="stop5563-5" offset="1" style="stop-color:#ce5d36;stop-opacity:1"/></linearGradient><linearGradient id="linearGradient4288"><stop style="stop-color:#b95b20;stop-opacity:1" id="stop4290" offset="0"/><stop style="stop-color:#ed8137;stop-opacity:1" id="stop4292" offset="1"/></linearGradient><linearGradient id="linearGradient3104-5-6"><stop id="stop3106-9-1" offset="0" style="stop-color:#aaa;stop-opacity:1"/><stop id="stop3108-9" offset="1" style="stop-color:#c8c8c8;stop-opacity:1"/></linearGradient><linearGradient id="linearGradient3084" x1="24" x2="24" y1="5" y2="43" gradientTransform="translate(2.4e-6,0.9674487)" gradientUnits="userSpaceOnUse" xlink:href="#linearGradient3924-4"/><radialGradient id="radialGradient3093" cx="7.496" cy="8.45" r="20" fx="7.496" fy="8.45" gradientTransform="matrix(0,2.6444722,-2.7975362,-7.1978467e-8,55.573024,-14.641463)" gradientUnits="userSpaceOnUse" xlink:href="#linearGradient3600"/><linearGradient id="linearGradient3600"><stop style="stop-color:#f4f4f4;stop-opacity:1" id="stop3602" offset="0"/><stop style="stop-color:#dbdbdb;stop-opacity:1" id="stop3604" offset="1"/></linearGradient><linearGradient id="linearGradient3095" x1="24" x2="24" y1="44" y2="3.899" gradientTransform="matrix(1.3636358,0,0,1.3636358,-0.79291318,-1.750068)" gradientUnits="userSpaceOnUse" xlink:href="#linearGradient3104-5-6"/><linearGradient id="linearGradient3098" x1="20" x2="20" y1="43" y2="3" gradientTransform="matrix(0.34402156,0,0,0.34402156,16.546148,-1.113413)" gradientUnits="userSpaceOnUse" xlink:href="#linearGradient3104-5-6"/><radialGradient id="radialGradient2873-966-168" cx="4.993" cy="43.5" r="2.5" fx="4.993" fy="43.5" gradientTransform="matrix(2.003784,0,0,1.4,27.98813,-17.4)" gradientUnits="userSpaceOnUse" xlink:href="#linearGradient3688-166-749"/><linearGradient id="linearGradient3688-166-749"><stop style="stop-color:#181818;stop-opacity:1" id="stop2883" offset="0"/><stop style="stop-color:#181818;stop-opacity:0" id="stop2885" offset="1"/></linearGradient><radialGradient id="radialGradient2875-742-326" cx="4.993" cy="43.5" r="2.5" fx="4.993" fy="43.5" gradientTransform="matrix(2.003784,0,0,1.4,-20.01187,-104.4)" gradientUnits="userSpaceOnUse" xlink:href="#linearGradient3688-166-749"/><linearGradient id="linearGradient2877-634-617" x1="25.058" x2="25.058" y1="47.028" y2="39.999" gradientUnits="userSpaceOnUse" xlink:href="#linearGradient3702-501-757"/><linearGradient id="linearGradient3702-501-757"><stop style="stop-color:#181818;stop-opacity:0" id="stop2895" offset="0"/><stop style="stop-color:#181818;stop-opacity:1" id="stop2897" offset=".5"/><stop style="stop-color:#181818;stop-opacity:0" id="stop2899" offset="1"/></linearGradient><radialGradient id="radialGradient3049" cx="7.496" cy="8.45" r="20" fx="7.496" fy="8.45" gradientTransform="matrix(0,1.9392804,-2.0515274,-5.2784231e-8,16.650954,1.1715141)" gradientUnits="userSpaceOnUse" xlink:href="#linearGradient3600"/><linearGradient id="linearGradient3051" x1="24" x2="24" y1="44" y2="3.899" gradientTransform="translate(-24.684083,10.625208)" gradientUnits="userSpaceOnUse" xlink:href="#linearGradient3104-5-6"/><radialGradient id="radialGradient3843" cx="7.496" cy="8.45" r="20" fx="7.496" fy="8.45" gradientTransform="matrix(0,1.9392804,-2.0515274,-5.2784231e-8,5.7938109,-9.685629)" gradientUnits="userSpaceOnUse" xlink:href="#linearGradient3600"/><linearGradient id="linearGradient3845" x1="24" x2="24" y1="44" y2="3.899" gradientTransform="translate(-35.541226,-0.2319351)" gradientUnits="userSpaceOnUse" xlink:href="#linearGradient3104-5-6"/><radialGradient id="radialGradient3849" cx="7.496" cy="8.45" r="20" fx="7.496" fy="8.45" gradientTransform="matrix(0,1.9392804,-2.0515274,-5.2784231e-8,6.0795252,19.600086)" gradientUnits="userSpaceOnUse" xlink:href="#linearGradient3600"/><linearGradient id="linearGradient3851" x1="24" x2="24" y1="44" y2="3.899" gradientTransform="translate(-35.255512,29.05378)" gradientUnits="userSpaceOnUse" xlink:href="#linearGradient3104-5-6"/><radialGradient id="radialGradient3853" cx="7.496" cy="8.45" r="20" fx="7.496" fy="8.45" gradientTransform="matrix(1.3712783,1.3712783,-1.450649,1.4506489,12.602388,-10.945617)" gradientUnits="userSpaceOnUse" xlink:href="#linearGradient3600"/><linearGradient id="linearGradient3855" x1="24" x2="24" y1="44" y2="3.899" gradientTransform="matrix(0.70710678,-0.70710678,0.70710678,0.70710678,-9.9411258,24.967439)" gradientUnits="userSpaceOnUse" xlink:href="#linearGradient3104-5-6"/><radialGradient id="radialGradient3858" cx="7.496" cy="8.45" r="20" fx="7.496" fy="8.45" gradientTransform="matrix(0,1.9392804,-2.0515274,-5.2784231e-8,41.335037,-8.486255)" gradientUnits="userSpaceOnUse" xlink:href="#linearGradient3600"/><radialGradient id="radialGradient3863" cx="7.496" cy="8.45" r="20" fx="7.496" fy="8.45" gradientTransform="matrix(0,1.9392804,-2.0515274,-5.2784231e-8,-0.20618885,-15.685629)" gradientUnits="userSpaceOnUse" xlink:href="#linearGradient3600"/><linearGradient id="linearGradient3865" x1="24" x2="24" y1="44" y2="3.899" gradientTransform="translate(-41.541226,-6.2319348)" gradientUnits="userSpaceOnUse" xlink:href="#linearGradient3104-5-6"/><radialGradient id="c-6" cx="4.993" cy="43.5" r="2.5" gradientTransform="matrix(2.0038,0,0,1.4,27.988,-17.4)" gradientUnits="userSpaceOnUse"><stop id="stop4912-0" offset="0" stop-color="#181818"/><stop id="stop4914-6" offset="1" stop-color="#181818" stop-opacity="0"/></radialGradient><radialGradient id="b-2" cx="4.993" cy="43.5" r="2.5" gradientTransform="matrix(2.0038,0,0,1.4,-20.012,-104.4)" gradientUnits="userSpaceOnUse"><stop id="stop4917-6" offset="0" stop-color="#181818"/><stop id="stop4919-1" offset="1" stop-color="#181818" stop-opacity="0"/></radialGradient><linearGradient id="linearGradient4345" x1="2.252" x2="62.399" y1="14.272" y2="14.272" gradientTransform="matrix(0.99768383,0,0,0.53232952,-0.25108098,1.9829423)" gradientUnits="userSpaceOnUse" xlink:href="#linearGradient3707-319-631-407-324-616-674-812-821-107-178-392-400-6-3-549-901-1-9-100-4-2"/><linearGradient id="linearGradient4350" x1="25.058" x2="25.058" y1="47.028" y2="39.999" gradientUnits="userSpaceOnUse" xlink:href="#f"/><linearGradient id="linearGradient4352" x1="2.252" x2="62.399" y1="14.272" y2="14.272" gradientTransform="matrix(-0.99708712,-8.6911381e-5,1.8949314e-4,-0.5396258,64.240379,61.204545)" gradientUnits="userSpaceOnUse" xlink:href="#linearGradient3707-319-631-407-324-616-674-812-821-107-178-392-400-6-3-549-901-1-9-100-4-2"/><linearGradient id="linearGradient4354" x1="2.252" x2="62.399" y1="14.272" y2="14.272" gradientTransform="matrix(0.05374904,0,0,0.43441391,30.277893,0.71547816)" gradientUnits="userSpaceOnUse" xlink:href="#linearGradient3707-319-631-407-324-616-674-812-821-107-178-392-400-6-3-549-901-1-9-100-4-2"/><linearGradient id="linearGradient10457"><stop style="stop-color:#000;stop-opacity:1" id="stop10453" offset="0"/><stop style="stop-color:#000;stop-opacity:0" id="stop10455" offset="1"/></linearGradient><linearGradient id="linearGradient3304" x1="24" x2="24" y1="5" y2="43" gradientTransform="matrix(0.2972973,0,0,0.2972973,8.8648691,193.86487)" gradientUnits="userSpaceOnUse" xlink:href="#linearGradient3924-4"/><radialGradient id="radialGradient4370" cx="6.73" cy="9.957" r="12.672" fx="6.2" fy="9.957" gradientTransform="matrix(0,3.1658508,-3.8866533,0,54.976839,166.27967)" gradientUnits="userSpaceOnUse" xlink:href="#linearGradient27416-1-2-0-1"/><linearGradient id="linearGradient27416-1-2-0-1"><stop style="stop-color:#8cd5ff;stop-opacity:1" id="stop27420-2-0-8-7" offset="0"/><stop style="stop-color:#3689e6;stop-opacity:1" id="stop10017" offset=".555"/><stop style="stop-color:#3689e6;stop-opacity:1" id="stop27422-3-5-3-3" offset="1"/></linearGradient><linearGradient id="linearGradient11559" x1="18" x2="18" y1="206" y2="197" gradientTransform="translate(0,1)" gradientUnits="userSpaceOnUse" xlink:href="#linearGradient10457"/><linearGradient id="linearGradient11577" x1="19" x2="19" y1="207" y2="199" gradientTransform="translate(0,-1)" gradientUnits="userSpaceOnUse" xlink:href="#linearGradient10457"/><linearGradient id="linearGradient2867-449-88-871-390-598-476-591-434-148-57-177-8-3-3-6-4-8-8-8"><stop id="stop3750-1-0-7-6-6-1-3-9" offset="0" style="stop-color:#ffcd7d;stop-opacity:1"/><stop id="stop3752-3-7-4-0-32-8-923-0" offset=".262" style="stop-color:#fc8f36;stop-opacity:1"/><stop id="stop3754-1-8-5-2-7-6-7-1" offset=".705" style="stop-color:#e23a0e;stop-opacity:1"/><stop id="stop3756-1-6-2-6-6-1-96-6" offset="1" style="stop-color:#ac441f;stop-opacity:1"/></linearGradient><linearGradient id="linearGradient5803-0"><stop id="stop5805-3" offset="0" style="stop-color:#fff5ef;stop-opacity:1"/><stop id="stop5807-4" offset="1" style="stop-color:#fef8dd;stop-opacity:1"/></linearGradient><linearGradient id="linearGradient3081" x1="24" x2="24" y1="5" y2="43" gradientTransform="matrix(0.2972973,0,0,0.2972973,0.83520901,0.89201971)" gradientUnits="userSpaceOnUse" xlink:href="#linearGradient3924-4"/><linearGradient id="linearGradient3084-3" x1="223.217" x2="223.217" y1="38.035" y2="47.987" gradientTransform="translate(-199,-34.000002)" gradientUnits="userSpaceOnUse" xlink:href="#linearGradient5803-0"/><radialGradient id="radialGradient3089" cx="6.73" cy="9.957" r="12.672" fx="6.2" fy="9.957" gradientTransform="matrix(0,3.1658508,-3.8866533,0,62.97684,-25.720325)" gradientUnits="userSpaceOnUse" xlink:href="#linearGradient2867-449-88-871-390-598-476-591-434-148-57-177-8-3-3-6-4-8-8-8"/><radialGradient id="radialGradient4344-6" cx="7.496" cy="8.45" r="20" gradientTransform="matrix(0.77897191,0.00527404,-0.011254,1.1900977,-14.678721,-34.034729)" gradientUnits="userSpaceOnUse" xlink:href="#radialGradient3164-0"/><radialGradient id="radialGradient3164-0" cx="7.496" cy="8.45" r="20" gradientTransform="matrix(1.273594e-7,3.2957553,-5.3809239,0,77.467708,-19.382411)" gradientUnits="userSpaceOnUse"><stop style="stop-color:#f8b17e;stop-opacity:1" id="stop3244-2" offset="0"/><stop style="stop-color:#e35d4f;stop-opacity:1" id="stop3246-9" offset=".262"/><stop style="stop-color:#c6262e;stop-opacity:1" id="stop3248-6" offset=".661"/><stop style="stop-color:#690b54;stop-opacity:1" id="stop3250-2" offset="1"/></radialGradient><linearGradient id="linearGradient3242-8"><stop id="stop3244-2-5" offset="0" style="stop-color:#f8b17e;stop-opacity:1"/><stop id="stop3246-9-5" offset=".262" style="stop-color:#e35d4f;stop-opacity:1"/><stop id="stop3248-10" offset=".661" style="stop-color:#c6262e;stop-opacity:1"/><stop id="stop3250-2-0" offset="1" style="stop-color:#690b54;stop-opacity:1"/></linearGradient><linearGradient id="linearGradient4011-6-3-8"><stop id="stop4013-0-0-6" offset="0" style="stop-color:#fff;stop-opacity:1"/><stop id="stop4015-7-9-1" offset=".508" style="stop-color:#fff;stop-opacity:.23529412"/><stop id="stop4017-6-8-4" offset=".835" style="stop-color:#fff;stop-opacity:.15686275"/><stop id="stop4019-8-2-1" offset="1" style="stop-color:#fff;stop-opacity:.39215687"/></linearGradient><linearGradient id="linearGradient4001" x1="71.204" x2="71.204" y1="6.238" y2="44.341" gradientTransform="matrix(0.24324325,0,0,0.24324325,3.5999709,-13.200944)" gradientUnits="userSpaceOnUse" xlink:href="#linearGradient4011-6-3-8"/><radialGradient id="radialGradient4004" cx="21.995" cy="4.038" r="20.397" fx="21.995" fy="4.038" gradientTransform="matrix(0,0.78112576,-1.0310721,0,25.162647,-31.42125)" gradientUnits="userSpaceOnUse" xlink:href="#linearGradient3242-8"/><radialGradient id="radialGradient4432-2-5" cx="-4.029" cy="93.468" r="35.338" fx="-4.029" fy="93.468" gradientTransform="matrix(1.5563924,0,0,0.16978827,70.270355,38.132101)" gradientUnits="userSpaceOnUse" xlink:href="#linearGradient10457"/><radialGradient id="radialGradient4093-9-9" cx="4.993" cy="43.5" r="2.5" fx="4.993" fy="43.5" gradientTransform="matrix(2.003784,0,0,1.4,27.98813,-17.4)" gradientUnits="userSpaceOnUse" xlink:href="#linearGradient3688-166-749"/><radialGradient id="radialGradient4095-6-7" cx="4.993" cy="43.5" r="2.5" fx="4.993" fy="43.5" gradientTransform="matrix(2.003784,0,0,1.4,-20.01187,-104.4)" gradientUnits="userSpaceOnUse" xlink:href="#linearGradient3688-166-749"/><radialGradient id="radialGradient3044-1-0" cx="33.141" cy="25.158" r="27.5" fx="33.141" fy="25.158" gradientTransform="matrix(1.6849362,-0.00630505,0.01328336,3.5497911,8.1890452,-46.529278)" gradientUnits="userSpaceOnUse" xlink:href="#linearGradient4217-6"/><linearGradient id="linearGradient4217-6"><stop id="stop4219" offset="0" style="stop-color:#fff;stop-opacity:1"/><stop id="stop4221" offset="1" style="stop-color:#c1c1c1;stop-opacity:1"/></linearGradient><linearGradient id="linearGradient4136-7-6" x1="24" x2="24" y1="5.591" y2="42.262" gradientTransform="matrix(2.7297298,0,0,2.7297298,-1.5135184,-62.511679)" gradientUnits="userSpaceOnUse" xlink:href="#linearGradient3924"/><linearGradient id="linearGradient3924"><stop style="stop-color:#fff;stop-opacity:1" id="stop3926" offset="0"/><stop style="stop-color:#fff;stop-opacity:.23529412" id="stop3928" offset=".038"/><stop style="stop-color:#fff;stop-opacity:.15686275" id="stop3930" offset=".967"/><stop style="stop-color:#fff;stop-opacity:.39215687" id="stop3932" offset="1"/></linearGradient><linearGradient id="linearGradient4772"><stop id="stop4774" offset="0" style="stop-color:#0f0f0f;stop-opacity:1"/><stop id="stop4776" offset="1" style="stop-color:#727272;stop-opacity:1"/></linearGradient><linearGradient id="linearGradient4632-92-3-0-8-1-9"><stop style="stop-color:#fafafa;stop-opacity:1" id="stop4634-68-8-0-2-9-4" offset="0"/><stop style="stop-color:#e1e1e1;stop-opacity:1" id="stop4636-8-21-7-1-4-8" offset="1"/></linearGradient><linearGradient id="linearGradient4411"><stop id="stop4413" offset="0" style="stop-color:#fff;stop-opacity:1"/><stop id="stop4415" offset=".541" style="stop-color:#fff;stop-opacity:.23529412"/><stop id="stop4417" offset=".967" style="stop-color:#fff;stop-opacity:.15686275"/><stop id="stop4419" offset="1" style="stop-color:#fff;stop-opacity:.39215687"/></linearGradient><radialGradient id="radialGradient3044-0-97-1-2" cx="57.297" cy="4.474" r="27.5" fx="42.383" fy="4.66" gradientTransform="matrix(0,0.91490211,-4.363968,-4.0510693e-8,82.948005,-28.623303)" gradientUnits="userSpaceOnUse" xlink:href="#linearGradient4772"/><radialGradient id="radialGradient3044-0-5-8" cx="57.297" cy="4.474" r="27.5" fx="42.383" fy="4.66" gradientTransform="matrix(0,0.91490211,-4.363968,-4.0510693e-8,82.948005,-33.843645)" gradientUnits="userSpaceOnUse" xlink:href="#linearGradient4632-92-3-0-8-1-9"/><linearGradient id="_Linear1" x1="0" x2="1" y1="0" y2="0" gradientTransform="matrix(0.992809,-3.16546,3.16546,0.992809,32.5806,61.4726)" gradientUnits="userSpaceOnUse"><stop style="stop-color:#ff8000;stop-opacity:1" id="stop45" offset="0"/><stop style="stop-color:#fec919;stop-opacity:1" id="stop47" offset="1"/></linearGradient><clipPath id="_clip2-3-6-6-6"><path id="path9-6-0-0-0" d="m 31.195,60.829 c 0,-0.83 1.377,-1.503 3.109,-1.503 0.09,0 0.179,10e-4 0.268,0.005 0.071,0.003 2.369,0 2.369,0 L 32.805,70.5 28.177,68.688 c 0,0 3.018,-7.029 3.018,-7.859 z"/></clipPath><linearGradient id="_Linear3" x1="0" x2="1" y1="0" y2="0" gradientTransform="matrix(0.475104,-8.73082,8.73082,0.475104,32.6523,68.8274)" gradientUnits="userSpaceOnUse"><stop style="stop-color:#000;stop-opacity:1" id="stop50" offset="0"/><stop style="stop-color:#000;stop-opacity:0" id="stop52" offset="1"/></linearGradient><linearGradient id="_Linear4" x1="0" x2="1" y1="0" y2="0" gradientTransform="matrix(0,-26.3538,26.3538,0,65.7189,20.9036)" gradientUnits="userSpaceOnUse"><stop style="stop-color:#ff8000;stop-opacity:1" id="stop55" offset="0"/><stop style="stop-color:#fec919;stop-opacity:1" id="stop57" offset="1"/></linearGradient><linearGradient id="_Linear5" x1="0" x2="1" y1="0" y2="0" gradientTransform="matrix(114.289,172.268,-172.268,114.289,26.3072,-22.9385)" gradientUnits="userSpaceOnUse"><stop style="stop-color:#ff8000;stop-opacity:1" id="stop60" offset="0"/><stop style="stop-color:#fec919;stop-opacity:1" id="stop62" offset="1"/></linearGradient><clipPath id="_clip6-0-6-6-6"><path id="path20-6-2-2-2" d="M 56.986,3.691 C 57.138,3.276 57.411,3 57.722,3 c 0.231,0 0.442,0.154 0.597,0.404 l 7,10.852 c 0.174,0.275 0.646,0.307 0.859,-0.002 L 73.327,3.404 C 73.482,3.154 73.693,3 73.925,3 c 0.311,0 0.583,0.276 0.735,0.691 l -0.002,-0.01 46.951,116.737 c 0.255,0.571 0.153,0.75 -0.511,0.312 L 52.046,78.995 9.7,121.238 c 0,0 47.247,-117.441 47.286,-117.547 z"/></clipPath><linearGradient id="_Linear7" x1="0" x2="1" y1="0" y2="0" gradientTransform="matrix(0,21.4461,-21.4461,0,65.0178,6.36662)" gradientUnits="userSpaceOnUse"><stop style="stop-color:#000;stop-opacity:.25" id="stop65" offset="0"/><stop style="stop-color:#000;stop-opacity:0" id="stop67" offset="1"/></linearGradient><linearGradient id="_Linear8" x1="0" x2="1" y1="0" y2="0" gradientTransform="matrix(11.7918,16.3344,-16.3344,11.7918,80.0279,75.0664)" gradientUnits="userSpaceOnUse"><stop style="stop-color:#000;stop-opacity:.25" id="stop70" offset="0"/><stop style="stop-color:#000;stop-opacity:0" id="stop72" offset="1"/></linearGradient><linearGradient id="_Linear9" x1="0" x2="1" y1="0" y2="0" gradientTransform="matrix(0,-5.79164,5.79164,0,65.7189,66.5203)" gradientUnits="userSpaceOnUse"><stop style="stop-color:#000;stop-opacity:.25" id="stop75" offset="0"/><stop style="stop-color:#000;stop-opacity:0" id="stop77" offset="1"/></linearGradient><linearGradient id="_Linear10" x1="0" x2="1" y1="0" y2="0" gradientTransform="matrix(72.4847,-67.4553,67.4553,72.4847,6.26221,121.995)" gradientUnits="userSpaceOnUse"><stop style="stop-color:#ff8000;stop-opacity:1" id="stop80" offset="0"/><stop style="stop-color:#fec919;stop-opacity:1" id="stop82" offset="1"/></linearGradient><clipPath id="clipPath4918"><path id="path4920" d="m 31.195,60.829 c 0,-0.83 1.377,-1.503 3.109,-1.503 0.09,0 0.179,10e-4 0.268,0.005 0.071,0.003 2.369,0 2.369,0 L 32.805,70.5 28.177,68.688 c 0,0 3.018,-7.029 3.018,-7.859 z"/></clipPath><clipPath id="clipPath4922"><path id="path4924" d="M 56.986,3.691 C 57.138,3.276 57.411,3 57.722,3 c 0.231,0 0.442,0.154 0.597,0.404 l 7,10.852 c 0.174,0.275 0.646,0.307 0.859,-0.002 L 73.327,3.404 C 73.482,3.154 73.693,3 73.925,3 c 0.311,0 0.583,0.276 0.735,0.691 l -0.002,-0.01 46.951,116.737 c 0.255,0.571 0.153,0.75 -0.511,0.312 L 52.046,78.995 9.7,121.238 c 0,0 47.247,-117.441 47.286,-117.547 z"/></clipPath><radialGradient id="radialGradient3163-3-3-3-3-3" cx="99.157" cy="186.171" r="62.769" fx="99.157" fy="186.171" gradientTransform="matrix(0.6869404,0,0,0.21461693,-4.02174,68.573331)" gradientUnits="userSpaceOnUse" xlink:href="#linearGradient3820-7-2-8-6"/><linearGradient id="linearGradient3820-7-2-8-6"><stop style="stop-color:#3d3d3d;stop-opacity:1" id="stop3822-2-6-5-0" offset="0"/><stop style="stop-color:#686868;stop-opacity:.49803922" id="stop3864-8-7-4-1" offset=".5"/><stop style="stop-color:#686868;stop-opacity:0" id="stop3824-1-2-6-7" offset="1"/></linearGradient><radialGradient id="radialGradient4332-3-3-3-3-3" cx="23.896" cy="3.99" r="20.397" fx="23.896" fy="3.99" gradientTransform="matrix(0,7.3269875,-9.6714935,0,103.09023,-162.1666)" gradientUnits="userSpaceOnUse" xlink:href="#radialGradient3093-0-3-6-5-5-5-5-5"/><radialGradient id="radialGradient3093-0-3-6-5-5-5-5-5" cx="23.896" cy="3.99" r="20.397" gradientTransform="matrix(0,1.2316483,-1.625754,0,18.486966,-28.721977)" gradientUnits="userSpaceOnUse"><stop id="stop3244-9-33-7-0-6-6-6-6-6" offset="0" style="stop-color:#6b6b6b;stop-opacity:1"/><stop id="stop3246-3-5-0-8-2-2-2-2-2" offset=".262" style="stop-color:#4f4f4f;stop-opacity:1"/><stop id="stop3248-1-7-8-8-9-9-9-9-9" offset=".661" style="stop-color:#3f3f3f;stop-opacity:1"/><stop id="stop3250-9-3-0-5-1-1-1-1-1" offset="1" style="stop-color:#89898b;stop-opacity:1"/></radialGradient><linearGradient id="linearGradient3118-2-2-2" x1="71.204" x2="71.204" y1="15.369" y2="40.496" gradientTransform="matrix(4.16388,0,0,4.16388,-236.03265,-50.036246)" gradientUnits="userSpaceOnUse" xlink:href="#linearGradient4806"/><linearGradient id="linearGradient4806"><stop id="stop4808" offset="0" style="stop-color:#fff;stop-opacity:1"/><stop id="stop4810" offset=".424" style="stop-color:#fff;stop-opacity:.23529412"/><stop id="stop4812" offset=".821" style="stop-color:#fff;stop-opacity:.15686275"/><stop id="stop4814" offset="1" style="stop-color:#fff;stop-opacity:.39215687"/></linearGradient><radialGradient id="radialGradient3163-3-3-3-3-3-3" cx="99.157" cy="186.171" r="62.769" fx="99.157" fy="186.171" gradientTransform="matrix(0.6869404,0,0,0.21461693,-4.02174,68.573331)" gradientUnits="userSpaceOnUse" xlink:href="#linearGradient3820-7-2-8-6"/><radialGradient id="radialGradient4332-3-3-3-3-3-3" cx="23.896" cy="3.99" r="20.397" fx="23.896" fy="3.99" gradientTransform="matrix(0,7.3269875,-9.6714935,0,103.09023,-162.1666)" gradientUnits="userSpaceOnUse" xlink:href="#radialGradient3093-0-3-6-5"/><radialGradient id="radialGradient3093-0-3-6-5-5-5-5-5-5" cx="23.896" cy="3.99" r="20.397" gradientTransform="matrix(0,1.2316483,-1.625754,0,18.486966,-28.721977)" gradientUnits="userSpaceOnUse"><stop id="stop3244-9-33-7-0-6-6-6-6-6-6" offset="0" style="stop-color:#6b6b6b;stop-opacity:1"/><stop id="stop3246-3-5-0-8-2-2-2-2-2-2" offset=".262" style="stop-color:#4f4f4f;stop-opacity:1"/><stop id="stop3248-1-7-8-8-9-9-9-9-9-9" offset=".661" style="stop-color:#3f3f3f;stop-opacity:1"/><stop id="stop3250-9-3-0-5-1-1-1-1-1-1" offset="1" style="stop-color:#89898b;stop-opacity:1"/></radialGradient><linearGradient id="linearGradient3118-2-2-2-2" x1="71.204" x2="71.204" y1="15.369" y2="40.496" gradientTransform="matrix(4.16388,0,0,4.16388,-236.03265,-50.036246)" gradientUnits="userSpaceOnUse" xlink:href="#linearGradient4806"/><clipPath id="_clip2-3-6-6-6-6"><path id="path9-6-0-0-0-0" d="m 31.195,60.829 c 0,-0.83 1.377,-1.503 3.109,-1.503 0.09,0 0.179,10e-4 0.268,0.005 0.071,0.003 2.369,0 2.369,0 L 32.805,70.5 28.177,68.688 c 0,0 3.018,-7.029 3.018,-7.859 z"/></clipPath><clipPath id="_clip6-0-6-6-6-6"><path id="path20-6-2-2-2-2" d="M 56.986,3.691 C 57.138,3.276 57.411,3 57.722,3 c 0.231,0 0.442,0.154 0.597,0.404 l 7,10.852 c 0.174,0.275 0.646,0.307 0.859,-0.002 L 73.327,3.404 C 73.482,3.154 73.693,3 73.925,3 c 0.311,0 0.583,0.276 0.735,0.691 l -0.002,-0.01 46.951,116.737 c 0.255,0.571 0.153,0.75 -0.511,0.312 L 52.046,78.995 9.7,121.238 c 0,0 47.247,-117.441 47.286,-117.547 z"/></clipPath><linearGradient id="linearGradient4476" x1="0" x2="1" y1="0" y2="0" gradientTransform="matrix(0.992809,-3.16546,3.16546,0.992809,32.5806,61.4726)" gradientUnits="userSpaceOnUse" xlink:href="#_Linear5-9"/><clipPath id="clipPath4534"><path id="path4536" d="m 31.195,60.829 c 0,-0.83 1.377,-1.503 3.109,-1.503 0.09,0 0.179,10e-4 0.268,0.005 0.071,0.003 2.369,0 2.369,0 L 32.805,70.5 28.177,68.688 c 0,0 3.018,-7.029 3.018,-7.859 z"/></clipPath><linearGradient id="linearGradient4478" x1="0" x2="1" y1="0" y2="0" gradientTransform="matrix(0.475104,-8.73082,8.73082,0.475104,32.6523,68.8274)" gradientUnits="userSpaceOnUse" xlink:href="#_Linear3"/><linearGradient id="linearGradient4480" x1=".729" x2=".211" y1=".003" y2="0" gradientTransform="matrix(0,-26.3538,26.3538,0,65.7189,20.9036)" gradientUnits="userSpaceOnUse" xlink:href="#_Linear5-9"/><linearGradient id="linearGradient4482" x1=".215" x2=".839" y1="-.035" y2="-.005" gradientTransform="matrix(114.289,172.268,-172.268,114.289,26.3072,-22.9385)" gradientUnits="userSpaceOnUse" xlink:href="#_Linear10-9"/><clipPath id="clipPath4550"><path id="path4552" d="M 56.986,3.691 C 57.138,3.276 57.411,3 57.722,3 c 0.231,0 0.442,0.154 0.597,0.404 l 7,10.852 c 0.174,0.275 0.646,0.307 0.859,-0.002 L 73.327,3.404 C 73.482,3.154 73.693,3 73.925,3 c 0.311,0 0.583,0.276 0.735,0.691 l -0.002,-0.01 46.951,116.737 c 0.255,0.571 0.153,0.75 -0.511,0.312 L 52.046,78.995 9.7,121.238 c 0,0 47.247,-117.441 47.286,-117.547 z"/></clipPath><linearGradient id="linearGradient4484" x1="0" x2="1" y1="0" y2="0" gradientTransform="matrix(0,21.4461,-21.4461,0,65.0178,6.36662)" gradientUnits="userSpaceOnUse" xlink:href="#_Linear7"/><linearGradient id="linearGradient4486" x1="0" x2="1" y1="0" y2="0" gradientTransform="matrix(11.7918,16.3344,-16.3344,11.7918,80.0279,75.0664)" gradientUnits="userSpaceOnUse" xlink:href="#_Linear8"/><linearGradient id="linearGradient4488" x1="0" x2="1" y1="0" y2="0" gradientTransform="matrix(0,-5.79164,5.79164,0,65.7189,66.5203)" gradientUnits="userSpaceOnUse" xlink:href="#_Linear9"/><linearGradient id="linearGradient4490" x1="0" x2="1.142" y1="0" y2=".218" gradientTransform="matrix(72.4847,-67.4553,67.4553,72.4847,6.26221,121.995)" gradientUnits="userSpaceOnUse" xlink:href="#_Linear5-9"/><radialGradient id="radialGradient3163-3" cx="99.157" cy="186.171" r="62.769" fx="99.157" fy="186.171" gradientTransform="matrix(0.6869404,0,0,0.21461693,-4.02174,68.573331)" gradientUnits="userSpaceOnUse" xlink:href="#linearGradient3820-7-2-8-6"/><radialGradient id="radialGradient4332-3" cx="25.098" cy="3.906" r="20.397" fx="26.57" fy="3.851" gradientTransform="matrix(0,7.3269875,-9.6714935,0,103.09023,-162.1666)" gradientUnits="userSpaceOnUse" xlink:href="#radialGradient3093-0-3-6-5"/><radialGradient id="radialGradient3093-0-3-6-5" cx="23.896" cy="3.99" r="20.397" gradientTransform="matrix(0,1.2316483,-1.625754,0,18.486966,-28.721977)" gradientUnits="userSpaceOnUse"><stop id="stop3244-9-33-7-0-6" offset="0" style="stop-color:#fcfcfc;stop-opacity:1"/><stop id="stop3248-1-7-8-8-9" offset=".625" style="stop-color:#c8c8c8;stop-opacity:1"/><stop id="stop3250-9-3-0-5-1" offset="1" style="stop-color:#89898b;stop-opacity:1"/></radialGradient><linearGradient id="_Linear5-9" x1="0" x2="1" y1="0" y2="0" gradientTransform="matrix(114.289,172.268,-172.268,114.289,26.3072,-22.9385)" gradientUnits="userSpaceOnUse"><stop style="stop-color:#aa46f7;stop-opacity:1" id="stop60-1" offset="0"/><stop style="stop-color:#8468f6;stop-opacity:1" id="stop62-2" offset="1"/></linearGradient><clipPath id="_clip2"><path id="path9" d="m 31.195,60.829 c 0,-0.83 1.377,-1.503 3.109,-1.503 0.09,0 0.179,10e-4 0.268,0.005 0.071,0.003 2.369,0 2.369,0 L 32.805,70.5 28.177,68.688 c 0,0 3.018,-7.029 3.018,-7.859 z"/></clipPath><clipPath id="_clip6"><path id="path20" d="M 56.986,3.691 C 57.138,3.276 57.411,3 57.722,3 c 0.231,0 0.442,0.154 0.597,0.404 l 7,10.852 c 0.174,0.275 0.646,0.307 0.859,-0.002 L 73.327,3.404 C 73.482,3.154 73.693,3 73.925,3 c 0.311,0 0.583,0.276 0.735,0.691 l -0.002,-0.01 46.951,116.737 c 0.255,0.571 0.153,0.75 -0.511,0.312 L 52.046,78.995 9.7,121.238 c 0,0 47.247,-117.441 47.286,-117.547 z"/></clipPath><linearGradient id="_Linear10-9" x1="0" x2="1" y1="0" y2="0" gradientTransform="matrix(72.4847,-67.4553,67.4553,72.4847,6.26221,121.995)" gradientUnits="userSpaceOnUse"><stop style="stop-color:#b53cf8;stop-opacity:1" id="stop80-2" offset="0"/><stop style="stop-color:#7c6ff5;stop-opacity:1" id="stop82-0" offset="1"/></linearGradient></defs><g style="display:inline" id="g4304" transform="matrix(0.12491353,0,0,0.12491353,-0.08620836,-0.24979795)"><path style="fill:url(#radialGradient3163-3-3-3-3-3-3);fill-opacity:1;stroke:none" id="path3818-0-5-0" d="m 107.21186,108.52868 a 43.118644,13.471312 0 1 1 -86.237286,0 43.118644,13.471312 0 1 1 86.237286,0 z"/><path id="path2555-7" d="m 64.499999,13.998148 c -28.691826,0 -52.000036,23.308205 -52.000036,52.000033 0,28.691827 23.30821,52.000049 52.000036,52.000029 28.691822,0 52.000051,-23.308202 52.000041,-52.000029 0,-28.691828 -23.308219,-52.000033 -52.000041,-52.000033 z" style="color:#000;display:inline;overflow:visible;visibility:visible;fill:url(#radialGradient4332-3-3-3-3-3-3);fill-opacity:1;fill-rule:nonzero;stroke:none;stroke-width:4.97094297;stroke-miterlimit:4;stroke-dasharray:none;marker:none;enable-background:accumulate"/><path style="color:#000;display:inline;overflow:visible;visibility:visible;opacity:.2;fill:none;fill-opacity:0;fill-rule:nonzero;stroke:#000;stroke-width:8.00553799;stroke-linecap:round;stroke-linejoin:round;stroke-miterlimit:4;stroke-dasharray:none;stroke-dashoffset:0;stroke-opacity:1;marker:none;enable-background:accumulate" id="path2555-7-1" d="m 64.5,13.998179 c -28.691806,0 -52.000001,23.308189 -52.000001,51.999997 0,28.691808 23.308195,52.000014 52.000001,52.000004 28.691802,0 52.00002,-23.308196 52,-52.000004 0,-28.691808 -23.308198,-51.999997 -52,-51.999997 z"/></g><g style="clip-rule:evenodd;display:inline;fill:#000;fill-opacity:.19607843;fill-rule:evenodd;stroke-linejoin:round;stroke-miterlimit:1.41420996" id="details" transform="matrix(0.07821852,0,0,0.07821852,2.9647367,2.8145336)"><g id="sunshine" style="fill:#000;fill-opacity:.19607843"><path style="fill:#000;fill-opacity:.19607843" id="path6" d="m 31.195,60.829 c 0,-0.83 1.377,-1.503 3.109,-1.503 0.09,0 0.179,10e-4 0.268,0.005 0.071,0.003 2.369,0 2.369,0 L 32.805,70.5 28.177,68.688 c 0,0 3.018,-7.029 3.018,-7.859 z"/><clipPath id="clipPath4253"><path id="path4255" d="m 31.195,60.829 c 0,-0.83 1.377,-1.503 3.109,-1.503 0.09,0 0.179,10e-4 0.268,0.005 0.071,0.003 2.369,0 2.369,0 L 32.805,70.5 28.177,68.688 c 0,0 3.018,-7.029 3.018,-7.859 z"/></clipPath><g id="g11" clip-path="url(#_clip2-3-6-6-6-6)" style="fill:#000;fill-opacity:.19607843"><rect style="fill:#000;fill-opacity:.19607843" id="rect13" width="15.868" height="17.349" x="24.718" y="55.601"/></g><path style="fill:#000;fill-opacity:.19607843" id="path15" d="M 73.994,3 57.653,3 65.719,15.341 73.994,3 Z"/><path style="fill:#000;fill-opacity:.19607843" id="path17" d="M 56.986,3.691 C 57.138,3.276 57.411,3 57.722,3 c 0.231,0 0.442,0.154 0.597,0.404 l 7,10.852 c 0.174,0.275 0.646,0.307 0.859,-0.002 L 73.327,3.404 C 73.482,3.154 73.693,3 73.925,3 c 0.311,0 0.583,0.276 0.735,0.691 l -0.002,-0.01 46.951,116.737 c 0.255,0.571 0.153,0.75 -0.511,0.312 L 52.046,78.995 28.345299,75.472266 c 0,0 28.601701,-71.675266 28.640701,-71.781266 z"/><clipPath id="clipPath4261"><path id="path4263" d="M 56.986,3.691 C 57.138,3.276 57.411,3 57.722,3 c 0.231,0 0.442,0.154 0.597,0.404 l 7,10.852 c 0.174,0.275 0.646,0.307 0.859,-0.002 L 73.327,3.404 C 73.482,3.154 73.693,3 73.925,3 c 0.311,0 0.583,0.276 0.735,0.691 l -0.002,-0.01 46.951,116.737 c 0.255,0.571 0.153,0.75 -0.511,0.312 L 52.046,78.995 9.7,121.238 c 0,0 47.247,-117.441 47.286,-117.547 z"/></clipPath><g id="g22" clip-path="url(#_clip6-0-6-6-6-6)" style="fill:#000;fill-opacity:.19607843"><rect style="fill:#000;fill-opacity:.19607843" id="rect24" width="54.879" height="29.098" x="37.578" y="3"/><path style="fill:#000;fill-opacity:.19607843" id="path28" d="M 103.728,54.345 32.559,54.414 26.307,70.5 97.788,67.094 103.728,54.345 Z"/><path style="fill:#000;fill-opacity:.19607843" id="path30" d="M 36.044,81.148 63.323,9.225 67.968,9.215 103.584,99.603 56.559,70.039 36.044,81.148 Z"/></g><path style="fill:#000;fill-opacity:.19607843" id="path32" d="m 34.304,62.332 h 73.561 c 0.485,-0.002 0.457,0.159 -0.005,0.457 L 6.864,124.802 c -0.613,0.375 -0.753,0.214 -0.441,-0.459 L 31.195,60.729 c 0,0 -0.231,1.456 3.109,1.603 z"/></g><g id="g34" style="fill:#000;fill-opacity:.19607843"><g style="opacity:.35;fill:#000;fill-opacity:.19607843" id="g36"><path style="fill:#000;fill-opacity:.19607843" id="path38" d="m 29.355,65.54 c 0.089,1.261 1.32,1.653 2.59,1.669 L 93.417,66.655 9.7,115.966 29.355,65.54 Z"/><path style="fill:#000;fill-opacity:.19607843" id="path40" d="M 70.611,3 65.719,10.623 61.054,3 70.611,3 Z"/></g></g></g><g id="g4434" transform="matrix(0.07821852,0,0,0.07821852,2.9647367,2.3142122)" style="clip-rule:evenodd;display:inline;fill-rule:evenodd;stroke-linejoin:round;stroke-miterlimit:1.41420996"><g id="g4436"><path id="path4438" d="m 31.195,60.829 c 0,-0.83 1.377,-1.503 3.109,-1.503 0.09,0 0.179,10e-4 0.268,0.005 0.071,0.003 2.369,0 2.369,0 L 32.805,70.5 28.177,68.688 c 0,0 3.018,-7.029 3.018,-7.859 z" style="fill:url(#linearGradient4476);fill-opacity:1"/><clipPath id="clipPath4440"><path id="path4442" d="m 31.195,60.829 c 0,-0.83 1.377,-1.503 3.109,-1.503 0.09,0 0.179,10e-4 0.268,0.005 0.071,0.003 2.369,0 2.369,0 L 32.805,70.5 28.177,68.688 c 0,0 3.018,-7.029 3.018,-7.859 z"/></clipPath><g id="g4444" clip-path="url(#_clip2-3-6-6-6-6)"><rect id="rect4446" width="15.868" height="17.349" x="24.718" y="55.601" style="fill:url(#linearGradient4478)"/></g><path id="path4448" d="M 73.994,3 57.653,3 65.719,15.341 73.994,3 Z" style="fill:url(#linearGradient4480);fill-opacity:1"/><path id="path4450" d="M 56.986,3.691 C 57.138,3.276 57.411,3 57.722,3 c 0.231,0 0.442,0.154 0.597,0.404 l 7,10.852 c 0.174,0.275 0.646,0.307 0.859,-0.002 L 73.327,3.404 C 73.482,3.154 73.693,3 73.925,3 c 0.311,0 0.583,0.276 0.735,0.691 l -0.002,-0.01 46.951,116.737 c 0.255,0.571 0.153,0.75 -0.511,0.312 L 52.046,78.995 9.7,121.238 c 0,0 47.247,-117.441 47.286,-117.547 z" style="fill:url(#linearGradient4482);fill-opacity:1"/><clipPath id="clipPath4452"><path id="path4454" d="M 56.986,3.691 C 57.138,3.276 57.411,3 57.722,3 c 0.231,0 0.442,0.154 0.597,0.404 l 7,10.852 c 0.174,0.275 0.646,0.307 0.859,-0.002 L 73.327,3.404 C 73.482,3.154 73.693,3 73.925,3 c 0.311,0 0.583,0.276 0.735,0.691 l -0.002,-0.01 46.951,116.737 c 0.255,0.571 0.153,0.75 -0.511,0.312 L 52.046,78.995 9.7,121.238 c 0,0 47.247,-117.441 47.286,-117.547 z"/></clipPath><g id="g4456" clip-path="url(#_clip6-0-6-6-6-6)"><rect id="rect4458" width="54.879" height="29.098" x="37.578" y="3" style="fill:url(#linearGradient4484)"/><path id="path4460" d="M 79.885,102.259 110.315,80.519 102.887,64 36.941,64.913 79.885,102.259 Z" style="fill:url(#linearGradient4486)"/><path id="path4462" d="M 103.728,54.345 32.559,54.414 26.307,70.5 97.788,67.094 103.728,54.345 Z" style="fill:url(#linearGradient4488)"/><path id="path4464" d="M 36.044,81.148 63.323,9.225 67.968,9.215 103.584,99.603 56.559,70.039 36.044,81.148 Z" style="fill:#fff;fill-opacity:.2"/></g><path id="path4466" d="m 34.304,62.332 73.561,0 c 0.485,-0.002 0.457,0.159 -0.005,0.457 L 6.864,124.802 c -0.613,0.375 -0.753,0.214 -0.441,-0.459 L 31.195,60.729 c 0,0 -0.231,1.456 3.109,1.603 z" style="fill:url(#linearGradient4490);fill-opacity:1"/></g><g id="g4468"><g id="g4470" style="opacity:.35"><path id="path4472" d="m 29.355,65.54 c 0.089,1.261 1.32,1.653 2.59,1.669 L 93.417,66.655 9.7,115.966 29.355,65.54 Z" style="fill:#fff"/><path id="path4474" d="M 70.611,3 65.719,10.623 61.054,3 70.611,3 Z" style="fill:#fff"/></g></g></g></svg>