<svg xmlns="http://www.w3.org/2000/svg" xmlns:svg="http://www.w3.org/2000/svg" xmlns:xlink="http://www.w3.org/1999/xlink" id="svg8" width="24" height="24" version="1.1" viewBox="0 0 6.35 6.35"><defs id="defs2"><linearGradient id="linearGradient829"><stop style="stop-color:#cd9ef7;stop-opacity:1" id="stop825" offset="0"/><stop style="stop-color:#a56de2;stop-opacity:1" id="stop827" offset="1"/></linearGradient><linearGradient id="linearGradient841" x1="3.175" x2="3.175" y1="291.179" y2="296.471" gradientTransform="matrix(3.7795277,0,0,3.7795277,0,-1098.5196)" gradientUnits="userSpaceOnUse" xlink:href="#linearGradient829"/></defs><metadata id="metadata5"/><g id="layer1" transform="translate(0,-290.64998)"><path style="opacity:1;fill:url(#linearGradient841);fill-opacity:1;fill-rule:nonzero;stroke:none;stroke-width:1;stroke-miterlimit:4;stroke-dasharray:none;stroke-opacity:1" id="rect833" d="M 4,2 C 2.8919822,2 2,2.8919822 2,4 v 16 c 0,1.108018 0.8919822,2 2,2 h 16 c 1.108018,0 2,-0.891982 2,-2 V 4 C 22,2.8919822 21.108018,2 20,2 Z m 0,1 h 16 c 0.554009,0 1,0.4459907 1,1 v 16 c 0,0.415507 -0.250213,0.770466 -0.609375,0.921875 C 20.270906,20.972343 20.138502,21 20,21 14.542927,21 8.7410141,21 4,21 3.4459907,21 3,20.554009 3,20 V 4 C 3,3.8614977 3.027657,3.7290942 3.078125,3.609375 3.2295338,3.2502127 3.5844931,3 4,3 Z" transform="matrix(0.26458334,0,0,0.26458334,0,290.64998)"/><rect style="opacity:.4;fill:#a56de2;fill-opacity:1;fill-rule:evenodd;stroke:none;stroke-width:.18708867" id="rect960" width=".265" height="4.763" x="292.502" y="-5.556" transform="rotate(90)"/><rect id="rect962" width=".265" height="4.763" x="293.296" y="-5.556" transform="rotate(90)" style="opacity:.4;fill:#a56de2;fill-opacity:1;fill-rule:evenodd;stroke:none;stroke-width:.18708867"/><rect style="opacity:.4;fill:#a56de2;fill-opacity:1;fill-rule:evenodd;stroke:none;stroke-width:.18708867" id="rect964" width=".265" height="4.763" x="294.09" y="-5.556" transform="rotate(90)"/><rect id="rect966" width=".265" height="4.763" x="294.883" y="-5.556" transform="rotate(90)" style="opacity:.4;fill:#a56de2;fill-opacity:1;fill-rule:evenodd;stroke:none;stroke-width:.18708867"/><rect id="rect972" width=".265" height="4.762" x="1.852" y="291.444" style="opacity:.4;fill:#a56de2;fill-opacity:1;fill-rule:evenodd;stroke:none;stroke-width:.18708865"/><rect style="opacity:.4;fill:#a56de2;fill-opacity:1;fill-rule:evenodd;stroke:none;stroke-width:.18708865" id="rect974" width=".265" height="4.762" x="2.646" y="291.444"/><rect id="rect976" width=".265" height="4.762" x="3.44" y="291.444" style="opacity:.4;fill:#a56de2;fill-opacity:1;fill-rule:evenodd;stroke:none;stroke-width:.18708865"/><rect style="opacity:.4;fill:#a56de2;fill-opacity:1;fill-rule:evenodd;stroke:none;stroke-width:.18708865" id="rect978" width=".265" height="4.762" x="4.233" y="291.444"/><rect style="opacity:.4;fill:#a56de2;fill-opacity:1;fill-rule:evenodd;stroke:none;stroke-width:.18708867" id="rect845" width=".265" height="4.763" x="295.677" y="-5.556" transform="rotate(90)"/><rect id="rect847" width=".265" height="4.763" x="291.708" y="-5.556" transform="rotate(90)" style="opacity:.4;fill:#a56de2;fill-opacity:1;fill-rule:evenodd;stroke:none;stroke-width:.18708867"/><rect style="opacity:.4;fill:#a56de2;fill-opacity:1;fill-rule:evenodd;stroke:none;stroke-width:.18708865" id="rect849" width=".265" height="4.762" x="1.058" y="291.444"/><rect id="rect851" width=".265" height="4.762" x="5.027" y="291.444" style="opacity:.4;fill:#a56de2;fill-opacity:1;fill-rule:evenodd;stroke:none;stroke-width:.18708865"/></g></svg>