<svg xmlns="http://www.w3.org/2000/svg" xmlns:svg="http://www.w3.org/2000/svg" xmlns:xlink="http://www.w3.org/1999/xlink" id="svg8" width="24" height="24" version="1.1" viewBox="0 0 6.35 6.35"><defs id="defs2"><linearGradient id="linearGradient829"><stop style="stop-color:#cd9ef7;stop-opacity:1" id="stop825" offset="0"/><stop style="stop-color:#a56de2;stop-opacity:1" id="stop827" offset="1"/></linearGradient><linearGradient id="linearGradient841" x1="3.175" x2="3.175" y1="291.179" y2="296.471" gradientTransform="matrix(3.7795276,0,0,3.7795276,0,-1098.5196)" gradientUnits="userSpaceOnUse" xlink:href="#linearGradient829"/></defs><metadata id="metadata5"/><g id="layer1" transform="translate(0,-290.64998)"><path style="opacity:1;fill:url(#linearGradient841);fill-opacity:1;fill-rule:nonzero;stroke:none;stroke-width:1;stroke-miterlimit:4;stroke-dasharray:none;stroke-opacity:1" id="rect833" d="M 4 2 C 2.8919822 2 2 2.8919822 2 4 L 2 20 C 2 21.108018 2.8919822 22 4 22 L 20 22 C 21.108018 22 22 21.108018 22 20 L 22 4 C 22 2.8919822 21.108018 2 20 2 L 4 2 z M 4 3 L 20 3 C 20.554009 3 21 3.4459907 21 4 L 21 7 L 3 7 L 3 4 C 3 3.4459907 3.4459907 3 4 3 z M 3 8 L 6 8 L 6 21 L 4 21 C 3.4459907 21 3 20.554009 3 20 L 3 8 z M 7 8 L 17 8 L 17 21 L 7 21 L 7 8 z M 18 8 L 21 8 L 21 20 C 21 20.554009 20.554009 21 20 21 L 18 21 L 18 8 z" transform="matrix(0.26458334,0,0,0.26458334,0,290.64998)"/></g></svg>