<svg xmlns="http://www.w3.org/2000/svg" xmlns:svg="http://www.w3.org/2000/svg" xmlns:xlink="http://www.w3.org/1999/xlink" id="svg8" width="24" height="24" version="1.1" viewBox="0 0 6.35 6.35"><defs id="defs2"><linearGradient id="linearGradient824"><stop style="stop-color:#95a3ab;stop-opacity:1" id="stop820" offset="0"/><stop style="stop-color:#667885;stop-opacity:1" id="stop822" offset="1"/></linearGradient><linearGradient id="linearGradient861" x1="12" x2="12" y1="2" y2="22" gradientUnits="userSpaceOnUse" xlink:href="#linearGradient824"/></defs><metadata id="metadata5"/><g id="layer1" transform="translate(0,-290.64998)"><path style="opacity:1;fill:url(#linearGradient861);fill-opacity:1;stroke:none;stroke-width:1;stroke-linecap:round;stroke-linejoin:round;stroke-miterlimit:4;stroke-dasharray:none;stroke-dashoffset:0;stroke-opacity:1;paint-order:markers fill stroke" id="rect825" d="M 11 2 L 11 5.0800781 A 7 7 0 0 0 7.8144531 6.4003906 L 5.6367188 4.2226562 L 4.2226562 5.6367188 L 6.4003906 7.8144531 A 7 7 0 0 0 5.078125 11 L 2 11 L 2 13 L 5.0800781 13 A 7 7 0 0 0 6.4003906 16.185547 L 4.2226562 18.363281 L 5.6367188 19.777344 L 7.8144531 17.599609 A 7 7 0 0 0 11 18.921875 L 11 22 L 13 22 L 13 18.919922 A 7 7 0 0 0 16.185547 17.599609 L 18.363281 19.777344 L 19.777344 18.363281 L 17.599609 16.185547 A 7 7 0 0 0 18.921875 13 L 22 13 L 22 11 L 18.919922 11 A 7 7 0 0 0 17.599609 7.8144531 L 19.777344 5.6367188 L 18.363281 4.2226562 L 16.185547 6.4003906 A 7 7 0 0 0 13 5.078125 L 13 2 L 11 2 z M 12 7 A 4.9999999 4.9999999 0 0 1 17 12 A 4.9999999 4.9999999 0 0 1 12 17 A 4.9999999 4.9999999 0 0 1 7 12 A 4.9999999 4.9999999 0 0 1 12 7 z" transform="matrix(0.26458334,0,0,0.26458334,0,290.64998)"/></g></svg>