<svg xmlns="http://www.w3.org/2000/svg" xmlns:osb="http://www.openswatchbook.org/uri/2009/osb" xmlns:svg="http://www.w3.org/2000/svg" xmlns:xlink="http://www.w3.org/1999/xlink" id="svg2453" width="32" height="32" version="1.0"><metadata id="metadata35"/><defs id="defs2455"><linearGradient id="linearGradient6490" osb:paint="gradient"><stop style="stop-color:#000;stop-opacity:1" id="stop6492" offset="0"/><stop style="stop-color:#000;stop-opacity:0" id="stop6494" offset="1"/></linearGradient><linearGradient id="linearGradient5641" osb:paint="solid"><stop style="stop-color:#000;stop-opacity:1" id="stop5643" offset="0"/></linearGradient><linearGradient id="linearGradient3707-319-631-407-324-616-674-812-821-107-178-392-400-6-3-549-901-1-9-100-4-2"><stop style="stop-color:#000;stop-opacity:1" id="stop17839-7-3" offset="0"/><stop style="stop-color:#161616;stop-opacity:1" id="stop17841-4-8" offset="1"/></linearGradient><radialGradient id="c" cx="4.993" cy="43.5" r="2.5" gradientTransform="matrix(2.0038,0,0,1.4,27.988,-17.4)" gradientUnits="userSpaceOnUse"><stop id="stop4912" offset="0" stop-color="#181818"/><stop id="stop4914" offset="1" stop-color="#181818" stop-opacity="0"/></radialGradient><radialGradient id="b" cx="4.993" cy="43.5" r="2.5" gradientTransform="matrix(2.0038,0,0,1.4,-20.012,-104.4)" gradientUnits="userSpaceOnUse"><stop id="stop4917" offset="0" stop-color="#181818"/><stop id="stop4919" offset="1" stop-color="#181818" stop-opacity="0"/></radialGradient><linearGradient id="f" x1="25.058" x2="25.058" y1="47.028" y2="39.999" gradientUnits="userSpaceOnUse"><stop id="stop4922" offset="0" stop-color="#181818" stop-opacity="0"/><stop id="stop4924" offset=".5" stop-color="#181818"/><stop id="stop4926" offset="1" stop-color="#181818" stop-opacity="0"/></linearGradient><linearGradient id="linearGradient3924-4"><stop style="stop-color:#fff;stop-opacity:1" id="stop3926-8" offset="0"/><stop style="stop-color:#fff;stop-opacity:.23529412" id="stop3928-6" offset=".063"/><stop style="stop-color:#fff;stop-opacity:.15686275" id="stop3930-4" offset=".951"/><stop style="stop-color:#fff;stop-opacity:.39215687" id="stop3932-4" offset="1"/></linearGradient><linearGradient id="linearGradient5344-867-2"><stop id="stop5559-5" offset="0" style="stop-color:#f9c590;stop-opacity:1"/><stop id="stop5561-3" offset=".397" style="stop-color:#f19860;stop-opacity:1"/><stop id="stop5563-5" offset="1" style="stop-color:#ce5d36;stop-opacity:1"/></linearGradient><linearGradient id="linearGradient4288"><stop style="stop-color:#b95b20;stop-opacity:1" id="stop4290" offset="0"/><stop style="stop-color:#ed8137;stop-opacity:1" id="stop4292" offset="1"/></linearGradient><linearGradient id="linearGradient3104-5-6"><stop id="stop3106-9-1" offset="0" style="stop-color:#aaa;stop-opacity:1"/><stop id="stop3108-9" offset="1" style="stop-color:#c8c8c8;stop-opacity:1"/></linearGradient><linearGradient id="linearGradient3084" x1="24" x2="24" y1="5" y2="43" gradientTransform="translate(2.4e-6,0.9674487)" gradientUnits="userSpaceOnUse" xlink:href="#linearGradient3924-4"/><radialGradient id="radialGradient3093" cx="7.496" cy="8.45" r="20" fx="7.496" fy="8.45" gradientTransform="matrix(0,2.6444722,-2.7975362,-7.1978467e-8,55.573024,-14.641463)" gradientUnits="userSpaceOnUse" xlink:href="#linearGradient3600"/><linearGradient id="linearGradient3600"><stop style="stop-color:#f4f4f4;stop-opacity:1" id="stop3602" offset="0"/><stop style="stop-color:#dbdbdb;stop-opacity:1" id="stop3604" offset="1"/></linearGradient><linearGradient id="linearGradient3095" x1="24" x2="24" y1="44" y2="3.899" gradientTransform="matrix(1.3636358,0,0,1.3636358,-0.79291318,-1.750068)" gradientUnits="userSpaceOnUse" xlink:href="#linearGradient3104-5-6"/><linearGradient id="linearGradient3098" x1="20" x2="20" y1="43" y2="3" gradientTransform="matrix(0.65678324,0,0,0.65678324,-0.00675933,-0.71877224)" gradientUnits="userSpaceOnUse" xlink:href="#linearGradient3104-5-6"/><radialGradient id="radialGradient2873-966-168" cx="4.993" cy="43.5" r="2.5" fx="4.993" fy="43.5" gradientTransform="matrix(2.003784,0,0,1.4,27.98813,-17.4)" gradientUnits="userSpaceOnUse" xlink:href="#linearGradient3688-166-749"/><linearGradient id="linearGradient3688-166-749"><stop style="stop-color:#181818;stop-opacity:1" id="stop2883" offset="0"/><stop style="stop-color:#181818;stop-opacity:0" id="stop2885" offset="1"/></linearGradient><radialGradient id="radialGradient2875-742-326" cx="4.993" cy="43.5" r="2.5" fx="4.993" fy="43.5" gradientTransform="matrix(2.003784,0,0,1.4,-20.01187,-104.4)" gradientUnits="userSpaceOnUse" xlink:href="#linearGradient3688-166-749"/><linearGradient id="linearGradient2877-634-617" x1="25.058" x2="25.058" y1="47.028" y2="39.999" gradientUnits="userSpaceOnUse" xlink:href="#linearGradient3702-501-757"/><linearGradient id="linearGradient3702-501-757"><stop style="stop-color:#181818;stop-opacity:0" id="stop2895" offset="0"/><stop style="stop-color:#181818;stop-opacity:1" id="stop2897" offset=".5"/><stop style="stop-color:#181818;stop-opacity:0" id="stop2899" offset="1"/></linearGradient><radialGradient id="radialGradient3049" cx="7.496" cy="8.45" r="20" fx="7.496" fy="8.45" gradientTransform="matrix(0,1.9392804,-2.0515274,-5.2784231e-8,16.650954,1.1715141)" gradientUnits="userSpaceOnUse" xlink:href="#linearGradient3600"/><linearGradient id="linearGradient3051" x1="24" x2="24" y1="44" y2="3.899" gradientTransform="translate(-24.684083,10.625208)" gradientUnits="userSpaceOnUse" xlink:href="#linearGradient3104-5-6"/><radialGradient id="radialGradient3843" cx="7.496" cy="8.45" r="20" fx="7.496" fy="8.45" gradientTransform="matrix(0,1.9392804,-2.0515274,-5.2784231e-8,5.7938109,-9.685629)" gradientUnits="userSpaceOnUse" xlink:href="#linearGradient3600"/><linearGradient id="linearGradient3845" x1="24" x2="24" y1="44" y2="3.899" gradientTransform="translate(-35.541226,-0.2319351)" gradientUnits="userSpaceOnUse" xlink:href="#linearGradient3104-5-6"/><radialGradient id="radialGradient3849" cx="7.496" cy="8.45" r="20" fx="7.496" fy="8.45" gradientTransform="matrix(0,1.9392804,-2.0515274,-5.2784231e-8,6.0795252,19.600086)" gradientUnits="userSpaceOnUse" xlink:href="#linearGradient3600"/><linearGradient id="linearGradient3851" x1="24" x2="24" y1="44" y2="3.899" gradientTransform="translate(-35.255512,29.05378)" gradientUnits="userSpaceOnUse" xlink:href="#linearGradient3104-5-6"/><radialGradient id="radialGradient3853" cx="7.496" cy="8.45" r="20" fx="7.496" fy="8.45" gradientTransform="matrix(1.3712783,1.3712783,-1.450649,1.4506489,12.602388,-10.945617)" gradientUnits="userSpaceOnUse" xlink:href="#linearGradient3600"/><linearGradient id="linearGradient3855" x1="24" x2="24" y1="44" y2="3.899" gradientTransform="matrix(0.70710678,-0.70710678,0.70710678,0.70710678,-9.9411258,24.967439)" gradientUnits="userSpaceOnUse" xlink:href="#linearGradient3104-5-6"/><radialGradient id="radialGradient3858" cx="7.496" cy="8.45" r="20" fx="7.496" fy="8.45" gradientTransform="matrix(0,1.9392804,-2.0515274,-5.2784231e-8,41.335037,-8.486255)" gradientUnits="userSpaceOnUse" xlink:href="#linearGradient3600"/><radialGradient id="radialGradient3863" cx="7.496" cy="8.45" r="20" fx="7.496" fy="8.45" gradientTransform="matrix(0,1.9392804,-2.0515274,-5.2784231e-8,-0.20618885,-15.685629)" gradientUnits="userSpaceOnUse" xlink:href="#linearGradient3600"/><linearGradient id="linearGradient3865" x1="24" x2="24" y1="44" y2="3.899" gradientTransform="translate(-41.541226,-6.2319348)" gradientUnits="userSpaceOnUse" xlink:href="#linearGradient3104-5-6"/><radialGradient id="c-6" cx="4.993" cy="43.5" r="2.5" gradientTransform="matrix(2.0038,0,0,1.4,27.988,-17.4)" gradientUnits="userSpaceOnUse"><stop id="stop4912-0" offset="0" stop-color="#181818"/><stop id="stop4914-6" offset="1" stop-color="#181818" stop-opacity="0"/></radialGradient><radialGradient id="b-2" cx="4.993" cy="43.5" r="2.5" gradientTransform="matrix(2.0038,0,0,1.4,-20.012,-104.4)" gradientUnits="userSpaceOnUse"><stop id="stop4917-6" offset="0" stop-color="#181818"/><stop id="stop4919-1" offset="1" stop-color="#181818" stop-opacity="0"/></radialGradient><linearGradient id="linearGradient4345" x1="2.252" x2="62.399" y1="14.272" y2="14.272" gradientTransform="matrix(0.99768383,0,0,0.53232952,-0.25108098,1.9829423)" gradientUnits="userSpaceOnUse" xlink:href="#linearGradient3707-319-631-407-324-616-674-812-821-107-178-392-400-6-3-549-901-1-9-100-4-2"/><linearGradient id="linearGradient4350" x1="25.058" x2="25.058" y1="47.028" y2="39.999" gradientUnits="userSpaceOnUse" xlink:href="#f"/><linearGradient id="linearGradient4352" x1="2.252" x2="62.399" y1="14.272" y2="14.272" gradientTransform="matrix(-0.99708712,-8.6911381e-5,1.8949314e-4,-0.5396258,64.240379,61.204545)" gradientUnits="userSpaceOnUse" xlink:href="#linearGradient3707-319-631-407-324-616-674-812-821-107-178-392-400-6-3-549-901-1-9-100-4-2"/><linearGradient id="linearGradient4354" x1="2.252" x2="62.399" y1="14.272" y2="14.272" gradientTransform="matrix(0.05374904,0,0,0.43441391,30.277893,0.71547816)" gradientUnits="userSpaceOnUse" xlink:href="#linearGradient3707-319-631-407-324-616-674-812-821-107-178-392-400-6-3-549-901-1-9-100-4-2"/><radialGradient id="radialGradient4432-2" cx="-4.029" cy="93.468" r="35.338" fx="-4.029" fy="93.468" gradientTransform="matrix(1.5563924,0,0,0.16978827,70.270355,38.132101)" gradientUnits="userSpaceOnUse" xlink:href="#linearGradient3811"/><linearGradient id="linearGradient3811"><stop style="stop-color:#000;stop-opacity:1" id="stop3813" offset="0"/><stop style="stop-color:#000;stop-opacity:0" id="stop3815" offset="1"/></linearGradient><radialGradient id="radialGradient4093-9" cx="4.993" cy="43.5" r="2.5" fx="4.993" fy="43.5" gradientTransform="matrix(2.003784,0,0,1.4,27.98813,-17.4)" gradientUnits="userSpaceOnUse" xlink:href="#linearGradient3688-166-749"/><radialGradient id="radialGradient4095-6" cx="4.993" cy="43.5" r="2.5" fx="4.993" fy="43.5" gradientTransform="matrix(2.003784,0,0,1.4,-20.01187,-104.4)" gradientUnits="userSpaceOnUse" xlink:href="#linearGradient3688-166-749"/><radialGradient id="radialGradient3044-1" cx="33.141" cy="25.158" r="27.5" fx="33.141" fy="25.158" gradientTransform="matrix(1.6849362,-0.00630505,0.01328336,3.5497911,8.1890452,-46.529278)" gradientUnits="userSpaceOnUse" xlink:href="#linearGradient4217-6"/><linearGradient id="linearGradient4217-6"><stop id="stop4219" offset="0" style="stop-color:#fff;stop-opacity:1"/><stop id="stop4221" offset="1" style="stop-color:#c1c1c1;stop-opacity:1"/></linearGradient><linearGradient id="linearGradient4136-7" x1="24" x2="24" y1="5.591" y2="42.262" gradientTransform="matrix(2.7297298,0,0,2.7297298,-1.5135184,-62.511679)" gradientUnits="userSpaceOnUse" xlink:href="#linearGradient3924"/><linearGradient id="linearGradient3924"><stop style="stop-color:#fff;stop-opacity:1" id="stop3926" offset="0"/><stop style="stop-color:#fff;stop-opacity:.23529412" id="stop3928" offset=".038"/><stop style="stop-color:#fff;stop-opacity:.15686275" id="stop3930" offset=".967"/><stop style="stop-color:#fff;stop-opacity:.39215687" id="stop3932" offset="1"/></linearGradient><linearGradient id="linearGradient4772"><stop id="stop4774" offset="0" style="stop-color:#0f0f0f;stop-opacity:1"/><stop id="stop4776" offset="1" style="stop-color:#727272;stop-opacity:1"/></linearGradient><linearGradient id="linearGradient4632-92-3-0-8-1-9"><stop style="stop-color:#fafafa;stop-opacity:1" id="stop4634-68-8-0-2-9-4" offset="0"/><stop style="stop-color:#e1e1e1;stop-opacity:1" id="stop4636-8-21-7-1-4-8" offset="1"/></linearGradient><linearGradient id="linearGradient4411"><stop id="stop4413" offset="0" style="stop-color:#fff;stop-opacity:1"/><stop id="stop4415" offset=".541" style="stop-color:#fff;stop-opacity:.23529412"/><stop id="stop4417" offset=".967" style="stop-color:#fff;stop-opacity:.15686275"/><stop id="stop4419" offset="1" style="stop-color:#fff;stop-opacity:.39215687"/></linearGradient><radialGradient id="radialGradient3044-0-97-1" cx="57.297" cy="4.474" r="27.5" fx="42.383" fy="4.66" gradientTransform="matrix(0,0.91490211,-4.363968,-4.0510693e-8,82.948005,-28.623303)" gradientUnits="userSpaceOnUse" xlink:href="#linearGradient4772"/><radialGradient id="radialGradient3044-0-5" cx="57.297" cy="4.474" r="27.5" fx="42.383" fy="4.66" gradientTransform="matrix(0,0.91490211,-4.363968,-4.0510693e-8,82.948005,-33.843645)" gradientUnits="userSpaceOnUse" xlink:href="#linearGradient4632-92-3-0-8-1-9"/><radialGradient id="radialGradient4432-2-5" cx="-4.029" cy="93.468" r="35.338" fx="-4.029" fy="93.468" gradientTransform="matrix(1.5563924,0,0,0.16978827,70.270355,38.132101)" gradientUnits="userSpaceOnUse" xlink:href="#linearGradient3811"/><radialGradient id="radialGradient4093-9-9" cx="4.993" cy="43.5" r="2.5" fx="4.993" fy="43.5" gradientTransform="matrix(2.003784,0,0,1.4,27.98813,-17.4)" gradientUnits="userSpaceOnUse" xlink:href="#linearGradient3688-166-749"/><radialGradient id="radialGradient4095-6-7" cx="4.993" cy="43.5" r="2.5" fx="4.993" fy="43.5" gradientTransform="matrix(2.003784,0,0,1.4,-20.01187,-104.4)" gradientUnits="userSpaceOnUse" xlink:href="#linearGradient3688-166-749"/><linearGradient id="linearGradient2877-634-617-0" x1="25.058" x2="25.058" y1="47.028" y2="39.999" gradientUnits="userSpaceOnUse" xlink:href="#linearGradient3702-501-757"/><radialGradient id="radialGradient3044-1-0" cx="33.141" cy="25.158" r="27.5" fx="33.141" fy="25.158" gradientTransform="matrix(1.6849362,-0.00630505,0.01328336,3.5497911,8.1890452,-46.529278)" gradientUnits="userSpaceOnUse" xlink:href="#linearGradient4217-6"/><linearGradient id="linearGradient4136-7-6" x1="24" x2="24" y1="5.591" y2="42.262" gradientTransform="matrix(2.7297298,0,0,2.7297298,-1.5135184,-62.511679)" gradientUnits="userSpaceOnUse" xlink:href="#linearGradient3924"/><radialGradient id="radialGradient3044-0-97-1-2" cx="57.297" cy="4.474" r="27.5" fx="42.383" fy="4.66" gradientTransform="matrix(0,0.91490211,-4.363968,-4.0510693e-8,82.948005,-28.623303)" gradientUnits="userSpaceOnUse" xlink:href="#linearGradient4772"/><radialGradient id="radialGradient3044-0-5-8" cx="57.297" cy="4.474" r="27.5" fx="42.383" fy="4.66" gradientTransform="matrix(0,0.91490211,-4.363968,-4.0510693e-8,82.948005,-33.843645)" gradientUnits="userSpaceOnUse" xlink:href="#linearGradient4632-92-3-0-8-1-9"/><radialGradient id="radialGradient4432-2-6-9" cx="-4.029" cy="93.468" r="35.338" fx="-4.029" fy="93.468" gradientTransform="matrix(1.5563924,0,0,0.16978827,70.270355,38.132101)" gradientUnits="userSpaceOnUse" xlink:href="#linearGradient3811"/><radialGradient id="radialGradient4093-3-7-0" cx="4.993" cy="43.5" r="2.5" fx="4.993" fy="43.5" gradientTransform="matrix(2.003784,0,0,1.4,27.98813,-17.4)" gradientUnits="userSpaceOnUse" xlink:href="#linearGradient3688-166-749"/><radialGradient id="radialGradient4095-7-2-6" cx="4.993" cy="43.5" r="2.5" fx="4.993" fy="43.5" gradientTransform="matrix(2.003784,0,0,1.4,-20.01187,-104.4)" gradientUnits="userSpaceOnUse" xlink:href="#linearGradient3688-166-749"/><radialGradient id="radialGradient3044-5-4-2" cx="32" cy="4.342" r="27.5" fx="32" fy="4.342" gradientTransform="matrix(1.8994991e-8,4.3639682,-4.363968,1.8994991e-8,82.947989,-187.94014)" gradientUnits="userSpaceOnUse" xlink:href="#linearGradient4632-92-3-0-8-1-9"/><linearGradient id="_Linear1" x1="0" x2="1" y1="0" y2="0" gradientTransform="matrix(0.992809,-3.16546,3.16546,0.992809,32.5806,61.4726)" gradientUnits="userSpaceOnUse"><stop style="stop-color:#ff8000;stop-opacity:1" id="stop45" offset="0"/><stop style="stop-color:#fec919;stop-opacity:1" id="stop47" offset="1"/></linearGradient><clipPath id="_clip2-3-6"><path id="path9-6-0" d="m 31.195,60.829 c 0,-0.83 1.377,-1.503 3.109,-1.503 0.09,0 0.179,10e-4 0.268,0.005 0.071,0.003 2.369,0 2.369,0 L 32.805,70.5 28.177,68.688 c 0,0 3.018,-7.029 3.018,-7.859 z"/></clipPath><linearGradient id="_Linear3" x1="0" x2="1" y1="0" y2="0" gradientTransform="matrix(0.475104,-8.73082,8.73082,0.475104,32.6523,68.8274)" gradientUnits="userSpaceOnUse"><stop style="stop-color:#000;stop-opacity:1" id="stop50" offset="0"/><stop style="stop-color:#000;stop-opacity:0" id="stop52" offset="1"/></linearGradient><linearGradient id="_Linear4" x1="0" x2="1" y1="0" y2="0" gradientTransform="matrix(0,-26.3538,26.3538,0,65.7189,20.9036)" gradientUnits="userSpaceOnUse"><stop style="stop-color:#ff8000;stop-opacity:1" id="stop55" offset="0"/><stop style="stop-color:#fec919;stop-opacity:1" id="stop57" offset="1"/></linearGradient><linearGradient id="_Linear5" x1="0" x2="1" y1="0" y2="0" gradientTransform="matrix(114.289,172.268,-172.268,114.289,26.3072,-22.9385)" gradientUnits="userSpaceOnUse"><stop style="stop-color:#ff8000;stop-opacity:1" id="stop60" offset="0"/><stop style="stop-color:#fec919;stop-opacity:1" id="stop62" offset="1"/></linearGradient><clipPath id="_clip6-0-6"><path id="path20-6-2" d="M 56.986,3.691 C 57.138,3.276 57.411,3 57.722,3 c 0.231,0 0.442,0.154 0.597,0.404 l 7,10.852 c 0.174,0.275 0.646,0.307 0.859,-0.002 L 73.327,3.404 C 73.482,3.154 73.693,3 73.925,3 c 0.311,0 0.583,0.276 0.735,0.691 l -0.002,-0.01 46.951,116.737 c 0.255,0.571 0.153,0.75 -0.511,0.312 L 52.046,78.995 9.7,121.238 c 0,0 47.247,-117.441 47.286,-117.547 z"/></clipPath><linearGradient id="_Linear7" x1="0" x2="1" y1="0" y2="0" gradientTransform="matrix(0,21.4461,-21.4461,0,65.0178,6.36662)" gradientUnits="userSpaceOnUse"><stop style="stop-color:#000;stop-opacity:.25" id="stop65" offset="0"/><stop style="stop-color:#000;stop-opacity:0" id="stop67" offset="1"/></linearGradient><linearGradient id="_Linear8" x1="0" x2="1" y1="0" y2="0" gradientTransform="matrix(11.7918,16.3344,-16.3344,11.7918,80.0279,75.0664)" gradientUnits="userSpaceOnUse"><stop style="stop-color:#000;stop-opacity:.25" id="stop70" offset="0"/><stop style="stop-color:#000;stop-opacity:0" id="stop72" offset="1"/></linearGradient><linearGradient id="_Linear9" x1="0" x2="1" y1="0" y2="0" gradientTransform="matrix(0,-5.79164,5.79164,0,65.7189,66.5203)" gradientUnits="userSpaceOnUse"><stop style="stop-color:#000;stop-opacity:.25" id="stop75" offset="0"/><stop style="stop-color:#000;stop-opacity:0" id="stop77" offset="1"/></linearGradient><linearGradient id="_Linear10" x1="0" x2="1" y1="0" y2="0" gradientTransform="matrix(72.4847,-67.4553,67.4553,72.4847,6.26221,121.995)" gradientUnits="userSpaceOnUse"><stop style="stop-color:#ff8000;stop-opacity:1" id="stop80" offset="0"/><stop style="stop-color:#fec919;stop-opacity:1" id="stop82" offset="1"/></linearGradient><clipPath id="clipPath4959"><path id="path4961" d="m 31.195,60.829 c 0,-0.83 1.377,-1.503 3.109,-1.503 0.09,0 0.179,10e-4 0.268,0.005 0.071,0.003 2.369,0 2.369,0 L 32.805,70.5 28.177,68.688 c 0,0 3.018,-7.029 3.018,-7.859 z"/></clipPath><clipPath id="clipPath4963"><path id="path4965" d="M 56.986,3.691 C 57.138,3.276 57.411,3 57.722,3 c 0.231,0 0.442,0.154 0.597,0.404 l 7,10.852 c 0.174,0.275 0.646,0.307 0.859,-0.002 L 73.327,3.404 C 73.482,3.154 73.693,3 73.925,3 c 0.311,0 0.583,0.276 0.735,0.691 l -0.002,-0.01 46.951,116.737 c 0.255,0.571 0.153,0.75 -0.511,0.312 L 52.046,78.995 9.7,121.238 c 0,0 47.247,-117.441 47.286,-117.547 z"/></clipPath><radialGradient id="radialGradient3163-3-3-3" cx="99.157" cy="186.171" r="62.769" fx="99.157" fy="186.171" gradientTransform="matrix(0.6869404,0,0,0.21461693,-4.02174,68.573331)" gradientUnits="userSpaceOnUse" xlink:href="#linearGradient3820-7-2-8-6"/><linearGradient id="linearGradient3820-7-2-8-6"><stop style="stop-color:#3d3d3d;stop-opacity:1" id="stop3822-2-6-5-0" offset="0"/><stop style="stop-color:#686868;stop-opacity:.49803922" id="stop3864-8-7-4-1" offset=".5"/><stop style="stop-color:#686868;stop-opacity:0" id="stop3824-1-2-6-7" offset="1"/></linearGradient><radialGradient id="radialGradient4332-3-3-3" cx="23.896" cy="3.99" r="20.397" fx="23.896" fy="3.99" gradientTransform="matrix(0,7.3269875,-9.6714935,0,103.09023,-162.1666)" gradientUnits="userSpaceOnUse" xlink:href="#radialGradient3093-0-3-6-5-5-5"/><radialGradient id="radialGradient3093-0-3-6-5-5-5" cx="23.896" cy="3.99" r="20.397" gradientTransform="matrix(0,1.2316483,-1.625754,0,18.486966,-28.721977)" gradientUnits="userSpaceOnUse"><stop id="stop3244-9-33-7-0-6-6-6" offset="0" style="stop-color:#6b6b6b;stop-opacity:1"/><stop id="stop3246-3-5-0-8-2-2-2" offset=".262" style="stop-color:#4f4f4f;stop-opacity:1"/><stop id="stop3248-1-7-8-8-9-9-9" offset=".661" style="stop-color:#3f3f3f;stop-opacity:1"/><stop id="stop3250-9-3-0-5-1-1-1" offset="1" style="stop-color:#89898b;stop-opacity:1"/></radialGradient><linearGradient id="linearGradient3118-2" x1="71.204" x2="71.204" y1="15.369" y2="40.496" gradientTransform="matrix(4.16388,0,0,4.16388,-236.03265,-50.036246)" gradientUnits="userSpaceOnUse" xlink:href="#linearGradient4806"/><linearGradient id="linearGradient4806"><stop id="stop4808" offset="0" style="stop-color:#fff;stop-opacity:1"/><stop id="stop4810" offset=".424" style="stop-color:#fff;stop-opacity:.23529412"/><stop id="stop4812" offset=".821" style="stop-color:#fff;stop-opacity:.15686275"/><stop id="stop4814" offset="1" style="stop-color:#fff;stop-opacity:.39215687"/></linearGradient><radialGradient id="radialGradient3163-3-3-3-3" cx="99.157" cy="186.171" r="62.769" fx="99.157" fy="186.171" gradientTransform="matrix(0.6869404,0,0,0.21461693,-4.02174,68.573331)" gradientUnits="userSpaceOnUse" xlink:href="#linearGradient3820-7-2-8-6"/><radialGradient id="radialGradient4332-3-3-3-3" cx="23.896" cy="3.99" r="20.397" fx="23.896" fy="3.99" gradientTransform="matrix(0,7.3269875,-9.6714935,0,103.09023,-162.1666)" gradientUnits="userSpaceOnUse" xlink:href="#radialGradient3093-0-3-6-5"/><radialGradient id="radialGradient3093-0-3-6-5-5-5-5" cx="23.896" cy="3.99" r="20.397" gradientTransform="matrix(0,1.2316483,-1.625754,0,18.486966,-28.721977)" gradientUnits="userSpaceOnUse"><stop id="stop3244-9-33-7-0-6-6-6-6" offset="0" style="stop-color:#6b6b6b;stop-opacity:1"/><stop id="stop3246-3-5-0-8-2-2-2-2" offset=".262" style="stop-color:#4f4f4f;stop-opacity:1"/><stop id="stop3248-1-7-8-8-9-9-9-9" offset=".661" style="stop-color:#3f3f3f;stop-opacity:1"/><stop id="stop3250-9-3-0-5-1-1-1-1" offset="1" style="stop-color:#89898b;stop-opacity:1"/></radialGradient><linearGradient id="linearGradient3118-2-2" x1="71.204" x2="71.204" y1="15.369" y2="40.496" gradientTransform="matrix(4.16388,0,0,4.16388,-236.03265,-50.036246)" gradientUnits="userSpaceOnUse" xlink:href="#linearGradient4806"/><clipPath id="_clip2-3-6-6"><path id="path9-6-0-0" d="m 31.195,60.829 c 0,-0.83 1.377,-1.503 3.109,-1.503 0.09,0 0.179,10e-4 0.268,0.005 0.071,0.003 2.369,0 2.369,0 L 32.805,70.5 28.177,68.688 c 0,0 3.018,-7.029 3.018,-7.859 z"/></clipPath><clipPath id="_clip6-0-6-6"><path id="path20-6-2-2" d="M 56.986,3.691 C 57.138,3.276 57.411,3 57.722,3 c 0.231,0 0.442,0.154 0.597,0.404 l 7,10.852 c 0.174,0.275 0.646,0.307 0.859,-0.002 L 73.327,3.404 C 73.482,3.154 73.693,3 73.925,3 c 0.311,0 0.583,0.276 0.735,0.691 l -0.002,-0.01 46.951,116.737 c 0.255,0.571 0.153,0.75 -0.511,0.312 L 52.046,78.995 9.7,121.238 c 0,0 47.247,-117.441 47.286,-117.547 z"/></clipPath><linearGradient id="linearGradient4476" x1="0" x2="1" y1="0" y2="0" gradientTransform="matrix(0.992809,-3.16546,3.16546,0.992809,32.5806,61.4726)" gradientUnits="userSpaceOnUse" xlink:href="#_Linear5-6"/><clipPath id="clipPath4525"><path id="path4527" d="m 31.195,60.829 c 0,-0.83 1.377,-1.503 3.109,-1.503 0.09,0 0.179,10e-4 0.268,0.005 0.071,0.003 2.369,0 2.369,0 L 32.805,70.5 28.177,68.688 c 0,0 3.018,-7.029 3.018,-7.859 z"/></clipPath><linearGradient id="linearGradient4478" x1="0" x2="1" y1="0" y2="0" gradientTransform="matrix(0.475104,-8.73082,8.73082,0.475104,32.6523,68.8274)" gradientUnits="userSpaceOnUse" xlink:href="#_Linear3"/><linearGradient id="linearGradient4480" x1=".699" x2=".211" y1="-.004" y2="0" gradientTransform="matrix(0,-26.3538,26.3538,0,65.7189,20.9036)" gradientUnits="userSpaceOnUse" xlink:href="#_Linear10-0"/><linearGradient id="linearGradient4482" x1=".21" x2=".818" y1="-.012" y2=".011" gradientTransform="matrix(114.289,172.268,-172.268,114.289,26.3072,-22.9385)" gradientUnits="userSpaceOnUse" xlink:href="#_Linear5-6"/><clipPath id="clipPath4541"><path id="path4543" d="M 56.986,3.691 C 57.138,3.276 57.411,3 57.722,3 c 0.231,0 0.442,0.154 0.597,0.404 l 7,10.852 c 0.174,0.275 0.646,0.307 0.859,-0.002 L 73.327,3.404 C 73.482,3.154 73.693,3 73.925,3 c 0.311,0 0.583,0.276 0.735,0.691 l -0.002,-0.01 46.951,116.737 c 0.255,0.571 0.153,0.75 -0.511,0.312 L 52.046,78.995 9.7,121.238 c 0,0 47.247,-117.441 47.286,-117.547 z"/></clipPath><linearGradient id="linearGradient4484" x1="0" x2="1" y1="0" y2="0" gradientTransform="matrix(0,21.4461,-21.4461,0,65.0178,6.3666233)" gradientUnits="userSpaceOnUse" xlink:href="#_Linear7"/><linearGradient id="linearGradient4486" x1="0" x2="1" y1="0" y2="0" gradientTransform="matrix(11.7918,16.3344,-16.3344,11.7918,80.0279,75.0664)" gradientUnits="userSpaceOnUse" xlink:href="#_Linear8"/><linearGradient id="linearGradient4488" x1="0" x2="1" y1="0" y2="0" gradientTransform="matrix(0,-5.79164,5.79164,0,65.7189,66.5203)" gradientUnits="userSpaceOnUse" xlink:href="#_Linear9"/><linearGradient id="linearGradient4490" x1="0" x2="1.142" y1="0" y2=".218" gradientTransform="matrix(72.4847,-67.4553,67.4553,72.4847,6.26221,121.995)" gradientUnits="userSpaceOnUse" xlink:href="#_Linear10-0"/><linearGradient id="_Linear5-6" x1="0" x2="1" y1="0" y2="0" gradientTransform="matrix(114.289,172.268,-172.268,114.289,26.3072,-22.9385)" gradientUnits="userSpaceOnUse"><stop style="stop-color:#aa46f7;stop-opacity:1" id="stop60-7" offset="0"/><stop style="stop-color:#8468f6;stop-opacity:1" id="stop62-5" offset="1"/></linearGradient><clipPath id="_clip2"><path id="path9" d="m 31.195,60.829 c 0,-0.83 1.377,-1.503 3.109,-1.503 0.09,0 0.179,10e-4 0.268,0.005 0.071,0.003 2.369,0 2.369,0 L 32.805,70.5 28.177,68.688 c 0,0 3.018,-7.029 3.018,-7.859 z"/></clipPath><clipPath id="_clip6"><path id="path20" d="M 56.986,3.691 C 57.138,3.276 57.411,3 57.722,3 c 0.231,0 0.442,0.154 0.597,0.404 l 7,10.852 c 0.174,0.275 0.646,0.307 0.859,-0.002 L 73.327,3.404 C 73.482,3.154 73.693,3 73.925,3 c 0.311,0 0.583,0.276 0.735,0.691 l -0.002,-0.01 46.951,116.737 c 0.255,0.571 0.153,0.75 -0.511,0.312 L 52.046,78.995 9.7,121.238 c 0,0 47.247,-117.441 47.286,-117.547 z"/></clipPath><linearGradient id="_Linear10-0" x1="0" x2="1" y1="0" y2="0" gradientTransform="matrix(72.4847,-67.4553,67.4553,72.4847,6.26221,121.995)" gradientUnits="userSpaceOnUse"><stop style="stop-color:#b53cf8;stop-opacity:1" id="stop80-6" offset="0"/><stop style="stop-color:#7c6ff5;stop-opacity:1" id="stop82-2" offset="1"/></linearGradient><radialGradient id="radialGradient3163-3" cx="99.157" cy="186.171" r="62.769" fx="99.157" fy="186.171" gradientTransform="matrix(0.6869404,0,0,0.21461693,-4.02174,68.573331)" gradientUnits="userSpaceOnUse" xlink:href="#linearGradient3820-7-2-8-6"/><radialGradient id="radialGradient4332-3" cx="25.098" cy="3.906" r="20.397" fx="26.57" fy="3.851" gradientTransform="matrix(0,7.3269875,-9.6714935,0,103.09023,-162.1666)" gradientUnits="userSpaceOnUse" xlink:href="#radialGradient3093-0-3-6-5"/><radialGradient id="radialGradient3093-0-3-6-5" cx="23.896" cy="3.99" r="20.397" gradientTransform="matrix(0,1.2316483,-1.625754,0,18.486966,-28.721977)" gradientUnits="userSpaceOnUse"><stop id="stop3244-9-33-7-0-6" offset="0" style="stop-color:#fcfcfc;stop-opacity:1"/><stop id="stop3248-1-7-8-8-9" offset=".625" style="stop-color:#c8c8c8;stop-opacity:1"/><stop id="stop3250-9-3-0-5-1" offset="1" style="stop-color:#89898b;stop-opacity:1"/></radialGradient></defs><g id="g4304" transform="matrix(0.26912569,0,0,0.26912568,-1.3586074,-2.2229554)" style="display:inline"><path id="path3818-0-5-0" d="m 107.21186,108.52868 a 43.118644,13.471312 0 1 1 -86.237286,0 43.118644,13.471312 0 1 1 86.237286,0 z" style="fill:url(#radialGradient3163-3-3-3-3);fill-opacity:1;stroke:none"/><path style="color:#000;display:inline;overflow:visible;visibility:visible;fill:url(#radialGradient4332-3-3-3-3);fill-opacity:1;fill-rule:nonzero;stroke:none;stroke-width:3.71573601;stroke-miterlimit:4;stroke-dasharray:none;marker:none;enable-background:accumulate" id="path2555-7" d="m 64.499999,13.998148 c -28.691826,0 -52.000036,23.308205 -52.000036,52.000033 0,28.691827 23.30821,52.000049 52.000036,52.000029 28.691822,0 52.000051,-23.308202 52.000041,-52.000029 0,-28.691828 -23.308219,-52.000033 -52.000041,-52.000033 z"/><path id="path2555-7-1" d="m 64.5,13.998179 c -28.691806,0 -52.000001,23.308189 -52.000001,51.999997 0,28.691808 23.308195,52.000014 52.000001,52.000004 28.691802,0 52.00002,-23.308196 52,-52.000004 0,-28.691808 -23.308198,-51.999997 -52,-51.999997 z" style="color:#000;display:inline;overflow:visible;visibility:visible;opacity:.2;fill:none;fill-opacity:0;fill-rule:nonzero;stroke:#000;stroke-width:3.71573639;stroke-linecap:round;stroke-linejoin:round;stroke-miterlimit:4;stroke-dasharray:none;stroke-dashoffset:0;stroke-opacity:1;marker:none;enable-background:accumulate"/><path id="path3019" d="m 115.5,65.998181 c 0,28.166516 -22.833502,50.999989 -51.000026,50.999989 -28.166487,0 -50.999973,-22.833473 -50.999973,-50.999989 0,-28.166517 22.833486,-50.999991 50.999973,-50.999991 28.166524,0 51.000026,22.833474 51.000026,50.999991 z" style="color:#000;display:inline;overflow:visible;visibility:visible;opacity:.25;fill:none;stroke:url(#linearGradient3118-2-2);stroke-width:3.71573639;stroke-linecap:round;stroke-linejoin:round;stroke-miterlimit:4;stroke-dasharray:none;stroke-dashoffset:0;stroke-opacity:1;marker:none;enable-background:accumulate"/></g><g id="details" transform="matrix(0.16118023,0,0,0.16118023,5.6844816,4.825496)" style="clip-rule:evenodd;display:inline;fill:#000;fill-opacity:.19607843;fill-rule:evenodd;stroke-linejoin:round;stroke-miterlimit:1.41420996"><g style="fill:#000;fill-opacity:.19607843" id="sunshine"><path id="path6" d="m 31.195,60.829 c 0,-0.83 1.377,-1.503 3.109,-1.503 0.09,0 0.179,10e-4 0.268,0.005 0.071,0.003 2.369,0 2.369,0 L 32.805,70.5 28.177,68.688 c 0,0 3.018,-7.029 3.018,-7.859 z" style="fill:#000;fill-opacity:.19607843"/><clipPath id="clipPath4253"><path id="path4255" d="m 31.195,60.829 c 0,-0.83 1.377,-1.503 3.109,-1.503 0.09,0 0.179,10e-4 0.268,0.005 0.071,0.003 2.369,0 2.369,0 L 32.805,70.5 28.177,68.688 c 0,0 3.018,-7.029 3.018,-7.859 z"/></clipPath><g style="fill:#000;fill-opacity:.19607843" id="g11" clip-path="url(#_clip2-3-6-6)"><rect id="rect13" width="15.868" height="17.349" x="24.718" y="55.601" style="fill:#000;fill-opacity:.19607843"/></g><path id="path15" d="M 73.994,3 57.653,3 65.719,15.341 73.994,3 Z" style="fill:#000;fill-opacity:.19607843"/><path id="path17" d="M 56.986,3.691 C 57.138,3.276 57.411,3 57.722,3 c 0.231,0 0.442,0.154 0.597,0.404 l 7,10.852 c 0.174,0.275 0.646,0.307 0.859,-0.002 L 73.327,3.404 C 73.482,3.154 73.693,3 73.925,3 c 0.311,0 0.583,0.276 0.735,0.691 l -0.002,-0.01 46.951,116.737 c 0.255,0.571 0.153,0.75 -0.511,0.312 L 52.046,78.995 18.036941,104.95188 c 0,0 38.910059,-101.15488 38.949059,-101.26088 z" style="fill:#000;fill-opacity:.19607843"/><clipPath id="clipPath4261"><path id="path4263" d="M 56.986,3.691 C 57.138,3.276 57.411,3 57.722,3 c 0.231,0 0.442,0.154 0.597,0.404 l 7,10.852 c 0.174,0.275 0.646,0.307 0.859,-0.002 L 73.327,3.404 C 73.482,3.154 73.693,3 73.925,3 c 0.311,0 0.583,0.276 0.735,0.691 l -0.002,-0.01 46.951,116.737 c 0.255,0.571 0.153,0.75 -0.511,0.312 L 52.046,78.995 9.7,121.238 c 0,0 47.247,-117.441 47.286,-117.547 z"/></clipPath><g style="fill:#000;fill-opacity:.19607843" id="g22" clip-path="url(#_clip6-0-6-6)"><rect id="rect24" width="54.879" height="29.098" x="37.578" y="3" style="fill:#000;fill-opacity:.19607843"/><path id="path28" d="M 103.728,54.345 32.559,54.414 26.307,70.5 97.788,67.094 103.728,54.345 Z" style="fill:#000;fill-opacity:.19607843"/><path id="path30" d="M 36.044,81.148 63.323,9.225 67.968,9.215 103.584,99.603 56.559,70.039 36.044,81.148 Z" style="fill:#000;fill-opacity:.19607843"/></g><path id="path32" d="M 34.304003,62.332 H 107.865 c 0.485,-0.002 0.457,0.159 -0.005,0.457 L 6.864003,124.802 c -0.613,0.375 -0.753,0.214 -0.441,-0.459 l 24.772,-63.614 c 0,0 -0.231,1.456 3.109,1.603 z" style="fill:#000;fill-opacity:.19607843"/></g><g style="fill:#000;fill-opacity:.19607843" id="g34"><g id="g36" style="opacity:.35;fill:#000;fill-opacity:.19607843"><path id="path38" d="m 29.355,65.54 c 0.089,1.261 1.32,1.653 2.59,1.669 L 93.417,66.655 9.7,115.966 29.355,65.54 Z" style="fill:#000;fill-opacity:.19607843"/><path id="path40" d="M 70.611,3 65.719,10.623 61.054,3 70.611,3 Z" style="fill:#000;fill-opacity:.19607843"/></g></g></g><g style="clip-rule:evenodd;display:inline;fill-rule:evenodd;stroke-linejoin:round;stroke-miterlimit:1.41420996" id="g4434" transform="matrix(0.16118023,0,0,0.16118023,5.6844816,3.7945144)"><g id="g4436"><path style="fill:url(#linearGradient4476);fill-opacity:1" id="path4438" d="m 31.195,60.829 c 0,-0.83 1.377,-1.503 3.109,-1.503 0.09,0 0.179,10e-4 0.268,0.005 0.071,0.003 2.369,0 2.369,0 L 32.805,70.5 28.177,68.688 c 0,0 3.018,-7.029 3.018,-7.859 z"/><clipPath id="clipPath4440"><path id="path4442" d="m 31.195,60.829 c 0,-0.83 1.377,-1.503 3.109,-1.503 0.09,0 0.179,10e-4 0.268,0.005 0.071,0.003 2.369,0 2.369,0 L 32.805,70.5 28.177,68.688 c 0,0 3.018,-7.029 3.018,-7.859 z"/></clipPath><g id="g4444" clip-path="url(#_clip2-3-6-6)" transform="translate(-3.3012038e-6)"><rect style="fill:url(#linearGradient4478)" id="rect4446" width="15.868" height="17.349" x="24.718" y="55.601"/></g><path style="fill:url(#linearGradient4480);fill-opacity:1" id="path4448" d="M 73.994,3 57.653,3 65.719,15.341 73.994,3 Z"/><path style="fill:url(#linearGradient4482);fill-opacity:1" id="path4450" d="M 56.986,3.691 C 57.138,3.276 57.411,3 57.722,3 c 0.231,0 0.442,0.154 0.597,0.404 l 7,10.852 c 0.174,0.275 0.646,0.307 0.859,-0.002 L 73.327,3.404 C 73.482,3.154 73.693,3 73.925,3 c 0.311,0 0.583,0.276 0.735,0.691 l -0.002,-0.01 46.951,116.737 c 0.255,0.571 0.153,0.75 -0.511,0.312 L 52.046,78.995 9.7,121.238 c 0,0 47.247,-117.441 47.286,-117.547 z"/><clipPath id="clipPath4452"><path id="path4454" d="M 56.986,3.691 C 57.138,3.276 57.411,3 57.722,3 c 0.231,0 0.442,0.154 0.597,0.404 l 7,10.852 c 0.174,0.275 0.646,0.307 0.859,-0.002 L 73.327,3.404 C 73.482,3.154 73.693,3 73.925,3 c 0.311,0 0.583,0.276 0.735,0.691 l -0.002,-0.01 46.951,116.737 c 0.255,0.571 0.153,0.75 -0.511,0.312 L 52.046,78.995 9.7,121.238 c 0,0 47.247,-117.441 47.286,-117.547 z"/></clipPath><g id="g4456" clip-path="url(#_clip6-0-6-6)"><rect style="fill:url(#linearGradient4484)" id="rect4458" width="54.879" height="29.098" x="37.578" y="3"/><path style="fill:url(#linearGradient4486)" id="path4460" d="M 79.885,102.259 110.315,80.519 102.887,64 36.941,64.913 79.885,102.259 Z"/><path style="fill:url(#linearGradient4488)" id="path4462" d="M 103.728,54.345 32.559,54.414 26.307,70.5 97.788,67.094 103.728,54.345 Z"/><path style="fill:#fff;fill-opacity:.2" id="path4464" d="M 36.044,81.148 63.323,9.225 67.968,9.215 103.584,99.603 56.559,70.039 36.044,81.148 Z"/></g><path style="fill:url(#linearGradient4490);fill-opacity:1" id="path4466" d="m 34.304,62.332 73.561,0 c 0.485,-0.002 0.457,0.159 -0.005,0.457 L 6.864,124.802 c -0.613,0.375 -0.753,0.214 -0.441,-0.459 L 31.195,60.729 c 0,0 -0.231,1.456 3.109,1.603 z"/></g><g id="g4468"><g style="opacity:.35" id="g4470"><path style="fill:#fff" id="path4472" d="m 29.355,65.54 c 0.089,1.261 1.32,1.653 2.59,1.669 L 93.417,66.655 9.7,115.966 29.355,65.54 Z"/><path style="fill:#fff" id="path4474" d="M 70.611,3 65.719,10.623 61.054,3 70.611,3 Z"/></g></g></g></svg>